<mxfile host="app.diagrams.net" modified="2023-06-28T13:39:16.250Z" agent="Mozilla/5.0 (X11; Ubuntu; Linux x86_64; rv:109.0) Gecko/20100101 Firefox/114.0" etag="XKzoxFhf46RJmxYEuPOe" version="21.5.1" type="github">
  <diagram name="Page-1" id="wPnnWa1YQc8VPtGbY-8h">
    <mxGraphModel dx="2599" dy="749" grid="1" gridSize="10" guides="1" tooltips="1" connect="1" arrows="1" fold="1" page="1" pageScale="1" pageWidth="1169" pageHeight="827" math="0" shadow="0">
      <root>
        <mxCell id="0" />
        <mxCell id="1" parent="0" />
        <mxCell id="c6kxqe1BvVCtiGg0cu40-29" value="&lt;div align=&quot;center&quot;&gt;&lt;h1&gt;Lookup/submission services&lt;/h1&gt;&lt;div&gt;&lt;br&gt;&lt;/div&gt;&lt;div&gt;&lt;br&gt;&lt;/div&gt;&lt;div&gt;&lt;br&gt;&lt;/div&gt;&lt;div&gt;&lt;br&gt;&lt;/div&gt;&lt;div&gt;&lt;br&gt;&lt;/div&gt;&lt;div&gt;&lt;br&gt;&lt;/div&gt;&lt;div&gt;&lt;br&gt;&lt;/div&gt;&lt;div&gt;&lt;br&gt;&lt;/div&gt;&lt;div&gt;&lt;br&gt;&lt;/div&gt;&lt;div&gt;&lt;br&gt;&lt;/div&gt;&lt;div&gt;&lt;br&gt;&lt;/div&gt;&lt;div&gt;&lt;br&gt;&lt;/div&gt;&lt;div&gt;&lt;br&gt;&lt;/div&gt;&lt;div&gt;&lt;br&gt;&lt;/div&gt;&lt;div&gt;&lt;br&gt;&lt;/div&gt;&lt;div&gt;&lt;br&gt;&lt;/div&gt;&lt;div&gt;&lt;br&gt;&lt;/div&gt;&lt;div&gt;&lt;br&gt;&lt;/div&gt;&lt;div&gt;&lt;br&gt;&lt;/div&gt;&lt;div&gt;&lt;br&gt;&lt;/div&gt;&lt;div&gt;&lt;br&gt;&lt;/div&gt;&lt;div&gt;&lt;br&gt;&lt;/div&gt;&lt;div&gt;&lt;br&gt;&lt;/div&gt;&lt;div&gt;&lt;br&gt;&lt;/div&gt;&lt;div&gt;&lt;br&gt;&lt;/div&gt;&lt;div&gt;&lt;br&gt;&lt;/div&gt;&lt;div&gt;&lt;br&gt;&lt;/div&gt;&lt;div&gt;&lt;br&gt;&lt;/div&gt;&lt;div&gt;&lt;br&gt;&lt;/div&gt;&lt;div&gt;&lt;br&gt;&lt;/div&gt;&lt;/div&gt;" style="whiteSpace=wrap;html=1;aspect=fixed;align=center;" parent="1" vertex="1">
          <mxGeometry x="830" y="20" width="530" height="530" as="geometry" />
        </mxCell>
        <mxCell id="c6kxqe1BvVCtiGg0cu40-1" value="&lt;div&gt;Lacus&lt;/div&gt;" style="whiteSpace=wrap;html=1;aspect=fixed;" parent="1" vertex="1">
          <mxGeometry x="47.5" y="170" width="85" height="85" as="geometry" />
        </mxCell>
        <mxCell id="c6kxqe1BvVCtiGg0cu40-17" style="edgeStyle=orthogonalEdgeStyle;rounded=0;orthogonalLoop=1;jettySize=auto;html=1;exitX=-0.016;exitY=0.159;exitDx=0;exitDy=0;entryX=0.5;entryY=1;entryDx=0;entryDy=0;exitPerimeter=0;" parent="1" target="c6kxqe1BvVCtiGg0cu40-1" edge="1" source="9cJPVwpwHsh4F_o2YOtW-5">
          <mxGeometry relative="1" as="geometry">
            <mxPoint x="416.75" y="283.25" as="sourcePoint" />
            <mxPoint x="110" y="270" as="targetPoint" />
          </mxGeometry>
        </mxCell>
        <mxCell id="c6kxqe1BvVCtiGg0cu40-25" value="&lt;div&gt;Trigger&lt;/div&gt;&lt;div&gt;captures&lt;/div&gt;" style="edgeLabel;html=1;align=center;verticalAlign=middle;resizable=0;points=[];" parent="c6kxqe1BvVCtiGg0cu40-17" vertex="1" connectable="0">
          <mxGeometry x="0.2435" y="1" relative="1" as="geometry">
            <mxPoint as="offset" />
          </mxGeometry>
        </mxCell>
        <mxCell id="c6kxqe1BvVCtiGg0cu40-18" style="edgeStyle=orthogonalEdgeStyle;rounded=0;orthogonalLoop=1;jettySize=auto;html=1;exitX=-0.016;exitY=0.584;exitDx=0;exitDy=0;exitPerimeter=0;entryX=0.441;entryY=0.003;entryDx=0;entryDy=0;entryPerimeter=0;" parent="1" source="9cJPVwpwHsh4F_o2YOtW-5" target="9cJPVwpwHsh4F_o2YOtW-9" edge="1">
          <mxGeometry relative="1" as="geometry">
            <Array as="points">
              <mxPoint x="80" y="311" />
            </Array>
            <mxPoint x="390" y="305.055" as="sourcePoint" />
            <mxPoint x="80" y="360" as="targetPoint" />
          </mxGeometry>
        </mxCell>
        <mxCell id="c6kxqe1BvVCtiGg0cu40-46" value="&lt;div&gt;Submit for long term storage&lt;/div&gt;&lt;div&gt;and sharing&lt;br&gt;&lt;/div&gt;" style="edgeLabel;html=1;align=center;verticalAlign=middle;resizable=0;points=[];" parent="c6kxqe1BvVCtiGg0cu40-18" vertex="1" connectable="0">
          <mxGeometry x="0.28" y="2" relative="1" as="geometry">
            <mxPoint x="-55" y="28" as="offset" />
          </mxGeometry>
        </mxCell>
        <mxCell id="c6kxqe1BvVCtiGg0cu40-21" style="edgeStyle=orthogonalEdgeStyle;rounded=0;orthogonalLoop=1;jettySize=auto;html=1;exitX=0.5;exitY=0;exitDx=0;exitDy=0;" parent="1" source="9cJPVwpwHsh4F_o2YOtW-5" target="c6kxqe1BvVCtiGg0cu40-5" edge="1">
          <mxGeometry relative="1" as="geometry">
            <mxPoint x="450" y="270" as="sourcePoint" />
          </mxGeometry>
        </mxCell>
        <mxCell id="c6kxqe1BvVCtiGg0cu40-26" value="&lt;div&gt;Initiate &lt;br&gt;&lt;/div&gt;&lt;div&gt;monitoring settings&lt;/div&gt;" style="edgeLabel;html=1;align=center;verticalAlign=middle;resizable=0;points=[];" parent="c6kxqe1BvVCtiGg0cu40-21" vertex="1" connectable="0">
          <mxGeometry x="0.12" y="1" relative="1" as="geometry">
            <mxPoint as="offset" />
          </mxGeometry>
        </mxCell>
        <mxCell id="c6kxqe1BvVCtiGg0cu40-41" style="edgeStyle=orthogonalEdgeStyle;rounded=0;orthogonalLoop=1;jettySize=auto;html=1;entryX=0.5;entryY=0;entryDx=0;entryDy=0;" parent="1" source="9cJPVwpwHsh4F_o2YOtW-5" target="c6kxqe1BvVCtiGg0cu40-11" edge="1">
          <mxGeometry relative="1" as="geometry">
            <mxPoint x="483.2500000000002" y="303.2758620689656" as="sourcePoint" />
            <Array as="points">
              <mxPoint x="600" y="297" />
            </Array>
          </mxGeometry>
        </mxCell>
        <mxCell id="kp8mjNgbDgWaijvRGnm4-3" value="&lt;div&gt;Submit for notification&lt;/div&gt;&lt;div&gt;to third parties&lt;br&gt;&lt;/div&gt;" style="edgeLabel;html=1;align=center;verticalAlign=middle;resizable=0;points=[];" parent="c6kxqe1BvVCtiGg0cu40-41" vertex="1" connectable="0">
          <mxGeometry x="0.0688" y="2" relative="1" as="geometry">
            <mxPoint y="48" as="offset" />
          </mxGeometry>
        </mxCell>
        <mxCell id="c6kxqe1BvVCtiGg0cu40-32" style="edgeStyle=orthogonalEdgeStyle;rounded=0;orthogonalLoop=1;jettySize=auto;html=1;exitX=1;exitY=0.5;exitDx=0;exitDy=0;entryX=0.5;entryY=1;entryDx=0;entryDy=0;" parent="1" source="9cJPVwpwHsh4F_o2YOtW-6" target="c6kxqe1BvVCtiGg0cu40-11" edge="1">
          <mxGeometry relative="1" as="geometry">
            <mxPoint x="400" y="580" as="sourcePoint" />
          </mxGeometry>
        </mxCell>
        <mxCell id="kp8mjNgbDgWaijvRGnm4-4" value="&lt;div&gt;Submit for notification&lt;/div&gt;&lt;div&gt;to third parties&lt;br&gt;&lt;/div&gt;" style="edgeLabel;html=1;align=center;verticalAlign=middle;resizable=0;points=[];" parent="c6kxqe1BvVCtiGg0cu40-32" vertex="1" connectable="0">
          <mxGeometry x="-0.0714" y="-5" relative="1" as="geometry">
            <mxPoint as="offset" />
          </mxGeometry>
        </mxCell>
        <mxCell id="c6kxqe1BvVCtiGg0cu40-43" style="edgeStyle=orthogonalEdgeStyle;rounded=0;orthogonalLoop=1;jettySize=auto;html=1;exitX=0.75;exitY=0;exitDx=0;exitDy=0;entryX=0.941;entryY=1.019;entryDx=0;entryDy=0;entryPerimeter=0;" parent="1" target="9cJPVwpwHsh4F_o2YOtW-5" edge="1">
          <mxGeometry relative="1" as="geometry">
            <mxPoint x="370" y="550" as="sourcePoint" />
            <Array as="points">
              <mxPoint x="370" y="341" />
            </Array>
            <mxPoint x="370" y="400" as="targetPoint" />
          </mxGeometry>
        </mxCell>
        <mxCell id="c6kxqe1BvVCtiGg0cu40-48" value="&lt;div&gt;Submit HTML content&lt;/div&gt;&lt;div&gt;and URLs&lt;br&gt;&lt;/div&gt;" style="edgeLabel;html=1;align=center;verticalAlign=middle;resizable=0;points=[];" parent="c6kxqe1BvVCtiGg0cu40-43" vertex="1" connectable="0">
          <mxGeometry x="-0.0942" y="1" relative="1" as="geometry">
            <mxPoint x="1" y="-23" as="offset" />
          </mxGeometry>
        </mxCell>
        <mxCell id="c6kxqe1BvVCtiGg0cu40-44" style="edgeStyle=orthogonalEdgeStyle;rounded=0;orthogonalLoop=1;jettySize=auto;html=1;exitX=-0.004;exitY=0.582;exitDx=0;exitDy=0;entryX=0.5;entryY=1;entryDx=0;entryDy=0;exitPerimeter=0;" parent="1" source="9cJPVwpwHsh4F_o2YOtW-6" edge="1" target="9cJPVwpwHsh4F_o2YOtW-9">
          <mxGeometry relative="1" as="geometry">
            <mxPoint x="90" y="480" as="targetPoint" />
            <mxPoint x="280" y="580" as="sourcePoint" />
          </mxGeometry>
        </mxCell>
        <mxCell id="c6kxqe1BvVCtiGg0cu40-45" value="&lt;div&gt;Submit for long term storage&lt;/div&gt;&lt;div&gt;and sharing&lt;/div&gt;" style="edgeLabel;html=1;align=center;verticalAlign=middle;resizable=0;points=[];" parent="c6kxqe1BvVCtiGg0cu40-44" vertex="1" connectable="0">
          <mxGeometry x="0.1333" y="-3" relative="1" as="geometry">
            <mxPoint as="offset" />
          </mxGeometry>
        </mxCell>
        <mxCell id="9cJPVwpwHsh4F_o2YOtW-1" style="edgeStyle=orthogonalEdgeStyle;rounded=0;orthogonalLoop=1;jettySize=auto;html=1;exitX=1;exitY=0.5;exitDx=0;exitDy=0;entryX=1;entryY=0.5;entryDx=0;entryDy=0;" edge="1" parent="1" source="c6kxqe1BvVCtiGg0cu40-5" target="c6kxqe1BvVCtiGg0cu40-11">
          <mxGeometry relative="1" as="geometry" />
        </mxCell>
        <mxCell id="9cJPVwpwHsh4F_o2YOtW-2" value="&lt;div&gt;Notification if &lt;br&gt;&lt;/div&gt;&lt;div&gt;something changes&lt;/div&gt;" style="edgeLabel;html=1;align=center;verticalAlign=middle;resizable=0;points=[];" vertex="1" connectable="0" parent="9cJPVwpwHsh4F_o2YOtW-1">
          <mxGeometry x="-0.131" y="-2" relative="1" as="geometry">
            <mxPoint x="22" y="78" as="offset" />
          </mxGeometry>
        </mxCell>
        <mxCell id="c6kxqe1BvVCtiGg0cu40-5" value="&lt;div&gt;Monitoring&lt;/div&gt;" style="whiteSpace=wrap;html=1;" parent="1" vertex="1">
          <mxGeometry x="252" y="50" width="120" height="60" as="geometry" />
        </mxCell>
        <mxCell id="c6kxqe1BvVCtiGg0cu40-7" value="VirusTotal" style="whiteSpace=wrap;html=1;" parent="1" vertex="1">
          <mxGeometry x="930" y="230" width="120" height="60" as="geometry" />
        </mxCell>
        <mxCell id="c6kxqe1BvVCtiGg0cu40-8" value="Hashlookup" style="whiteSpace=wrap;html=1;" parent="1" vertex="1">
          <mxGeometry x="1140" y="230" width="120" height="60" as="geometry" />
        </mxCell>
        <mxCell id="c6kxqe1BvVCtiGg0cu40-9" value="Phishtank Lookup" style="whiteSpace=wrap;html=1;" parent="1" vertex="1">
          <mxGeometry x="925" y="110" width="120" height="60" as="geometry" />
        </mxCell>
        <mxCell id="c6kxqe1BvVCtiGg0cu40-10" value="SaneJS" style="whiteSpace=wrap;html=1;" parent="1" vertex="1">
          <mxGeometry x="1130" y="120" width="120" height="60" as="geometry" />
        </mxCell>
        <mxCell id="c6kxqe1BvVCtiGg0cu40-11" value="Ticketing system" style="whiteSpace=wrap;html=1;" parent="1" vertex="1">
          <mxGeometry x="540" y="380" width="120" height="60" as="geometry" />
        </mxCell>
        <mxCell id="c6kxqe1BvVCtiGg0cu40-37" value="&lt;div&gt;Risk IQ&lt;/div&gt;" style="whiteSpace=wrap;html=1;" parent="1" vertex="1">
          <mxGeometry x="1130" y="460" width="120" height="60" as="geometry" />
        </mxCell>
        <mxCell id="c6kxqe1BvVCtiGg0cu40-38" value="URL Scan" style="whiteSpace=wrap;html=1;" parent="1" vertex="1">
          <mxGeometry x="930" y="340" width="120" height="60" as="geometry" />
        </mxCell>
        <mxCell id="c6kxqe1BvVCtiGg0cu40-39" value="&lt;div&gt;Uwhoisd&lt;/div&gt;" style="whiteSpace=wrap;html=1;" parent="1" vertex="1">
          <mxGeometry x="1140" y="330" width="120" height="60" as="geometry" />
        </mxCell>
        <mxCell id="kp8mjNgbDgWaijvRGnm4-2" value="MISP" style="whiteSpace=wrap;html=1;" parent="1" vertex="1">
          <mxGeometry x="920" y="460" width="120" height="60" as="geometry" />
        </mxCell>
        <mxCell id="9cJPVwpwHsh4F_o2YOtW-11" style="edgeStyle=orthogonalEdgeStyle;rounded=0;orthogonalLoop=1;jettySize=auto;html=1;exitX=0.5;exitY=1;exitDx=0;exitDy=0;entryX=0.5;entryY=0;entryDx=0;entryDy=0;" edge="1" parent="1" source="9cJPVwpwHsh4F_o2YOtW-4" target="c6kxqe1BvVCtiGg0cu40-1">
          <mxGeometry relative="1" as="geometry" />
        </mxCell>
        <mxCell id="9cJPVwpwHsh4F_o2YOtW-12" value="&lt;div&gt;Trigger&lt;/div&gt;&lt;div&gt;captures&lt;br&gt;&lt;/div&gt;" style="edgeLabel;html=1;align=center;verticalAlign=middle;resizable=0;points=[];" vertex="1" connectable="0" parent="9cJPVwpwHsh4F_o2YOtW-11">
          <mxGeometry x="0.1138" relative="1" as="geometry">
            <mxPoint as="offset" />
          </mxGeometry>
        </mxCell>
        <mxCell id="9cJPVwpwHsh4F_o2YOtW-4" value="" style="shape=image;imageAspect=0;aspect=fixed;verticalLabelPosition=bottom;verticalAlign=top;image=data:image/png,iVBORw0KGgoAAAANSUhEUgAAAMgAAADICAYAAACtWK6eAAA8z0lEQVR4nOydB3gUZfrAv9mdbbN9s5tseu9AIIUWOog0RRAF69nB0zsPT/92Pc96erZTT0VPTjg8ERFFadJDDyHUkEAS0su2bLb3nf8zA8mF7KTNzrZkf8+TJ7tTvnl3d975vvf93u99aSBMmDB9AgdagJEEi8UC8QlxNAhAcFZWOs3thmgAuAAKQRCEAhQAgDqdbveVuitum9XubGxsRAMt80gnrCAUkp6eBkdHR8N8PpeRlp4GZ2ZksCEIpadnpNMhAOgAAGiobaIoiup0eodSqXSbbVbnhXMXrUqFwtXY2OwwGAyO+voGt28+TRhA5gcLcxWpTErLzE5nFuUXIImJCayEhDiGSCRi+FMGFABU0a6wNzU125ubW2379x+0tLW12zs6OvwpxrAmrCCDBBseFU+ZjIwZk8suLp6ESMRiVqBlIgLrcWquXDGXHi+zVlRUmk+cKLUHWqZQJqwg/SAUCsHMWdN506dN4Y0encuBIGhITg233U6zNjanWFtaMlGXm29XKgVOvSHGplBEoQ6nEKAop9dv4AY0moHOYXcw5VEKZkREC53LddBYzHYkNbmCJZerhvoZHA6H89ixUtOevfuNRw4ftQ71/JFOWEF6IRDwoVmzZnJmzZrOz8nNQiAwsFK4TGampbEp29bammG6XJNla2vLsza3xqMORwTF4rlhsaieKZEouDlZR1nyqAZOQvxldmJCDQQN/FN2dnY6T506Y9y9e7fx5MnTNoplG5aEFeQaGRnp8J13rhAWThzH4zDY/Tov3DY7bLpcPU5ffnqWpb5htKWhKQd1OAT+k/Z6YIGgmZOcVIGkJJUJCsYd4CQm1A10jlKpsu7bt9+w8fsfDXqdPuwt64MRryCz58zkLLt1iSgjIw3p7zhHZydPe/jYYuPFqsnG8xdmAQD8apAPBRqbrREWFezg540uERbm74Po9H6Ohty//LrdsO3XHbrq6hqHH8UMCUakgvB4PGja9CncB+6/VyIW9+15cnRoJbpT5bO0JUdutdQ35IOrrtqQgsZi6fljRu0VT5m8lTcq5wiNySR0C2NdSE3NFdOGDd9pD5UcDg+/rjGiFITFYoIVdyznL1o4TySRiJl9Hac/ez6/Y+/+uw3nK2aiTiffv1L6DlgkbBGOL9wimzf3P0yZVE10DAoAevlSteW77zZpSkoOj3gPWMgryF133TVp6dKlDyYmJo7BHpjYNpVKVbNr164ta9as2WI2m/Ef+ZZbbuLcfPMiSWJiPJuoHbfdDnceOb5IvWffHdbGpgJ/fw5/AtHpFv64vL2yeTd8zs3MqCI+CkVLS08ZP/tsjaaxsdnlbxmDhZBVkKlTp6Z+8cUXa7Kzs2f1dYzJZKp94YUXHsnPH1UVFxfLITrGbbfT1Lv23KvavvNBl9EU7VOhgxAkNeWYbNH8z4SF+UeJ9qMoQEtKDuu+/PLrjra29hFnzIekgkydOnXCjh079nK5XG5/x9ntduB0OdErtZf+T6ls39Jzn8ts5qh/23ureteex11Go9TnQgc5rNiY0/Lbl34gzB9HqCgOh8O1du169U8/bTXabCNn5BVyCpKVlSUvKys7y+VyI/s6xul0Yj/oNdMTALfbbb18ueJhrbbjGPZes2f/LYotW//k1Ovj/Ch6SIBkph+Ovm3p230NveobGs3vvvO+qqrqstP/0vmfkPPKrF+//uucnJzxRPtQFAV2uw24XNf/dhAEwXy+KP/Kvr1Vde//41PtoSN3u222gM1bBDMOTUeCtuTInTaFUoqkp5bR2ezruguRSMhYsHCeEOEi7rKy8mHv7QqpHqSgoCChrKysligK2eVy4crRHztXrQINe/b4UsRhBQ1BlNHLl70RMWv6NqL9lZWXzH/961tKpVI5bI34kOpB7r///uWzZ89e3Hs7bms4B57jguh0cGXHDl+JN+xAHQ6u4czZ+YbzF/KRjPSTMJ9v6LlfJpMyFi2ax+/s1NmH6yRjSCnI888///u0tLRxXe/dbjew2WzA7R7cA4zGYICKdet8KeKwxNGhTdAePrqExmYrkNSUSz33wTBMmzR5Ak8kEkJnzpyzYD35cCKkltzKZLKkrtfYD2GzWQGKDn69kCgpCfQfdhGmL9xWq6h1/bfv1b330SdOg+E6lzkEALR48SLxP//5UUxkpGxYfcEhpSAmk0kDrrocB7Q3+iJ28mSqxRpRGM6cm3f52Zd2mS5Xj+q9LykpgfP111/Epaen9RmlEGqElLanpaUlTpw0ca7LSd7D2HHpElCUl1Mq10jDbbPztYeO3AILBc1IctJ1Qy4GA6bNmTOT365W2upq60PeFRwyCsJiscBdd61IycnOWepNOxatFtTt2kWdYCMX2HDm3FyHVsvlj8s73HM9CgzD0IxpU7lqtcZZXV0T0rOKIaEgcrkceuedN6Jzc7MRuTzmXm/aEsTHg9OffUadcCMbyFLfmG++XJ0tLCrYDcFwt4WOoig0adIEnkAodJaWngxZJQl6BYmMjIQ+/PDdmPj4WI7D4eiMioq+hU6HhWTbozMYoO6334BFTRjMGoYEdpU6VX/m3ET+mFEH6FzE3HNfdlYGVyKRgOPHS0NyuW9QK0hUVCT0/gd/i5FHRXZH4IpE4olsNifVm3bNSiVoKy2lRMYwV3Hq9DG6stM3CMaO2QPzeNfNl2RmpnMkEnFIKknQKohAKIA+/eTDaHlU5HUuRQThJgsEwoleNe52g8tbtngrYpheuC0Wke5E6XzhxPG/0BHOdT0JpiQiiQg9cfxkSClJUCoIZpB/8ME70fHxsfgyWAThJsbGJjySnp7zN5FIfIO37XPlclC1aRNwmEyUyBvmf7htdp6urHyOsKhge28lycrMQBgMhvP06TMhY5MEnYJgyvHuu29GZmVm8LD3MTHxd2Rk5HzJ5wvH02g0Slb30eh0oK2uBpqLF6loLkwv3GaLSH/q9ExBQf4eOoIYe+4bNTqXq9ZoQiY0JegU5OVXXpAWFozDI21jYxPuSUxMeRWCIMrlZAkE4NLmzVQ3G+YaLrNZoj97bqJo8sStNCazWxkgAED+uDxEoVBZ6+rqgn6eJKhm0h944HfCKcUTcQ8VgvCy4uOTXvLVtaLHjwfc6BG3gNCv2NsVOfXvfrDGbbdf94Bjs9m01asfl6enpwVtZpgugqYHmTVrBuf3j62MhK6F4Ccnpz6DILwcX17T7XKBliNHfHmJEY9D2xlnqW/IEBdP2t5zO4MB06ZOLUb27TuoN5vNgRNwAIJCQTIzM+C/vPpCDAOG8R6NRqPR09KyPxpqqs+hIkpNBefXrgWoO5wg3ZfYFco0t9Np5+fmlPXczmaz6OnpacyDBw8bnV6ED/mSgCsIi8WC3nzzr9EyaUR3gBuHg6TL5bH3+PraMJsNTAoFUF+44OtLjXjMl6uLWDExVey42OuyPsrlUUwAUPT06bNB6f4NuA3y/AvPSJKSEq5LxQNBkN+iQfMefBC7oL8uN5JhNH+19h1rc0tC7x133rlCUjxlclBmyw+ogixbtpQ7pXiiqPd2h6ZD4i8ZhElJIOOWW/x1uRGN22YTNnz82Udum+06ZYAgAD334lPyyEhZwB/YvQmYQLGxsfT7779b1nu702RCGr/8+mV/ypL/2GOAzibMJxeGYmytbaPbNv7wx97bOQw2vPrJP/SZqSZQBExB/vzUEzI2m+1hAzV/9e/n9dU1Sf6UBetFspcv9+clRzSaPfvv15WVF/fePr6okIuNKgIjFTEBUZCFC+fx8saM8vgitEeOzdaXla+w6XR+l6nwiScAIvPo0ML4AhRlNn+97m2n3uAxvH7ssUdkAoEgaIZafhckMlJGf/TRRzwKyzi0nfyWf//nTex1INyuLIEAFP/lL36/7kjFZTBEN69d91zv7W63m/7aa68EzZPK7wry5JNPSDgczwI1rd9u/D+31Up1RaYhkXLjjSB1wYJAijCi0JeV36o7dXpS7+25o7K5s2bPIMyl7G/8qiAzZk5nFRXle2Q0NFRczNMdL72j5zaXLTBJ+2b+/e9AkJgYkGuPRFr/899XeoeiQABAjz+2UsZEAp/7wa8KcvttSz2SRKMuF2jbsNEj5sqq1fpNrp7QmUxwwz/+ARj958UOQxEOtSZNteO3u3pvFwqFjBW33UZ65ShV+E1BFiyYx83MTPfwpWr27F9qbWoe23u7WaPxl2geSHNzwbQ33wzY9Ucaql+2P2FXqz2G18tvXyYJtMHul1ATFosFvfPuG3Img3Hd9dx2O1z/4SdfoXa7x+M66YYbcPdroJBkZOChKOFgRt+Dulxsl8XKEhaMO9hzOwzDUFJSIti374AlULL5RTvvvucOPhdBPEKb277b9AeX0UjosbAEsAfpYuwjj4Cxjz4aaDFGBNqSw3dZGps8wlAmTCwSxcfHBSxm0OcKgnWRi29eJO693aHVCjsOHr6vr/Nc9uBYlTnhz38GBX/0mPgNQz30tu82Pd17I2awP/jg7/wWetQbnyvI7ctv5XG5iIdbV7Xjt98RDa28xWE2U77WvPCPfwSTXniB0jbDeGI8XzHPXFef0nv7lCmTeZlZmf3WrvcVPlUQBoMB5s+b69F7uEwmRLP3QJ+9B4aT5CIaOosFSt97j9S5/THm/vvBnH/8Ixyz5Vsg1badD3pshCDa/HlzA+LR8qmCrLjjNp5IJPTQfPXufctRu73fCk9mkondaHQ6uLBuHWg/dYrU+f2RumABWLJpE+DHhSu3+QrdiZPL7WqNR9DiokXz+AKhwO/rEnyqIDNnTPPQerfNxuzYd/Dugc616/WkrwvRaODAs88Cm8FAuo2+iMjOBrdt3w7SwyHyPkP586+P9N4GQRD99tuW+r1sns8UZPz4ImZiYoLHeERXVj7TodX6dKqaI5UCXV0dOPLqqz5pn4EgYNbf/w5u/PxzwIkIaHTMsKTzxMmbHXoDr/f2W5ctESII4ldZfKYg8+fP9YjUBFeN80Eln3ZayLu+uVFR+P/qn34Cl3/6iXQ7A5E0Zw5YsWcPyL3H56uDRxRui0WiO146p/d2JoPBKC6e5NcYLZ8oiEwmoxUVFXiouqW5Jcba0DhhMG2YlErS10euKQjGweeeAx3V1aTbGggmnw+mvPIKWPLjjyAqP99n1xlpqHfvJXzqzJo13a/DLJ8oyIwZUxEOx3MxVOfho8sG24apvZ309TmS/7nN3Q4H2PXoo14p3GCIHDMG3LJxI5j35ZcgMi/Pp9caCdjbFXnm2iseLt+i8YWIP5fm+uRCM2cSa3nHwcODVhCzFzc0ZqT3RF9fD3atWoXPkfgUCAKJM2eCW374AcxbswZIR4/27fWGOZ2lZR4VjSEAaMVTJvnNEKFcQUaNGsXIyEz3GCcaKi6OcRmNMYNtx5vJPjrTM0xade4c3pP4YzEWhCnKrFng1i1bwOKNG0H6Yo/fOcwg0JYcIawmtmL5Mr8NsyhXkMKifITIWa09fOzWobaFoigpGXgxxHrYcuQI2PX73/s1jEVeUABmvfceuPf4cVC0ejWerC7M4HAZjdHGqsu5vbdHSKXsvLwxfklbSrmCzJs3x8M9h7pcQFdatnCobZFdE8LgeYjQTcOePaDkhReA088LsjhSKZ495fYdO8D8L78EyTfe2K+cYa7SefzEot7bIACg7OxMv3izKFWQpKREmlQq9UgAZq65koPa7YRu3/4wKRSk5IAGSAR3ecsWfCLRHYCi95h9lDBzJpj76afgzv37wewPPgBxU6Z42E1hrqI7fpLwwTp37ky/PF0oDQCbMKGI25V8uiedpcQfciBQkjfwYLKT1P7yC+4ImPf557irNhCwxWKQdtNN+J/daAS127aBpoMHQd3u3dj4MiAyBRsukynG0tScwImPa+y5PSExkS0Q8IFeT320RE8ofWxlZRF3e8bKqvFk2iMbsMiLjR3UcW0nToAflywBnVeukLoOlTB5PDw319x//hM8cPYs/j914ULACaciwobnc3tvgwAETZ48yefroilVkOkzpnq432wqtdTW1DKKTHuGtjZScvD7MNKJ0NXXg6133AGaDh0idS1fwEAQkDx3Lpjz0UfgroMHwcJvvgF5Dz00YoMkzdU1RUTbCwrG+jy0mjIFSU9PZaBut8fkoOVK3WjsNyfTprG1lZQsQx0yWTQasP3++8G5tWtJXc+X0JlMEFdcDCY++yy488ABsHz3bjzJnTg9PdCi+Q3zlfrRbofD414dN26czw11yhSksLCQUJstdfWkeg/g5Ww6DR66eXXsjTfA9gcfBGaVivR1fY0oORkU/OEPuDfsnmPHwKTnn8eN/OGM22KJtNQ3ZPfeLhYLWbJomU9D4ClTkIyMNEJtNpyvmE62TdSLoiqDtUN6gxnJ38+bB2p+/ZX0tf0FIpOBMQ88ABb++9/gd2VlYOa77+ITlDAnKHKuUYqlvpGw2lhibLxPyyZQpiCJiQmEwyhrc0sG2TatnZ2k5fHGM2XT6cDeP/0Jn3kP5t6kJ2yRCGQsWYKHuNx58CDuPo6dPHnY1D4xVlwcR7S9sKjAp08DShQkMlJGS0iI85z/qG+IA2436bgZI0kjHfQRbjJU6nfvBv+dPRuc/eor4HKERNViHI5EgruOF61bB3534gSY+NxzQJKVFWixvMLW2kY4VE9MTPBp+kVKFCQ+Po4BEczOWerqBxXa3hfexE3xSQ6xeuM0m8Hxt98GG+fOBc2HD1PSpj9hSyR4Fa3bfv0V3PrLLyBt8WIA0QNeeW/I2NraCUci8fGxPg05oURBrtaZ88TWphi8v5UAqxe5sajOr2toagLb7rsP/HrvvT5Z7+4PpNnZYPZ774F7jh7FUxkhkUFXr6Y/YEtTs7z3RrlczoyJjfFZGAI1PUhCPOEjyanTeVWI3KRQkE5i3XPRFJW0HD0Kfl6+HOx46CHQXl7uk2v4Gk5EBJ7KaMXu3WDq66+HTL14c22dx3wIBAAkkYh9lhKIEgUZMzqX0FAy117xauCLDbF0TU2kzqUzfBvs2XjgAPj59tvBT7ffDq7s2uXTa/kKBpcLclasAHeVlIApf/lL0PcoTr3eI4UUwO2QeJ/92JQoiCRCQtiD2BVKD9/1UHFZyVUHFsTHe3vpQaEoLwe7H3sMbJg2DVRs2EA6XVEgwczH3Lvvxicixz/1FGAK/J48ZFA41GqPFYYYAr7AZ0YVJQoSERHh0cU5TSaY7Ax6TywdHaTO83f5AmNrKzj8yitg45w5YO+TTwLFmTN+vT4V0JlMMG7VKrAMM+ZvvjnQ4njgNBgJPaJZ2Zk+82RRoiA0CPLQYIdKTYmVbCLp6g1UhK7daAQ1W7eCn5YtAz/ddhs4/803QZGIeyjwY2PB7Pffxxd6MYUBL9HRja2tLZlou0wqDV4FychII2wDRVFKJnBcJGfT+XFxeBrSQKI4fRocfe01sG7CBLDj4YdB1Q8/ACfJIWMgSF+8GCzfuRPEz5gRaFFwbG0KQgWBIN+lr/K64ejoGELtdajUlCysN5A00ml0OhAEsL5Ibxr37wcHn30WrM3Px5Wl5tdfQ8JeQWQyfAUkZpsEfP7E7SZcdJedne2zcAGv3WM8HkLs4jWbKfGzar3IaQVTMJtONW67HVcW7A9ms0H0+PEgcc4cPAkdN0i9SJgRj9kmkvR0sGf1atLrdKgAdbs9Vl86XY6gdvMSe7CUKkpycnozfhckeNRjCSqw4VZTSQk4/PLL4D+TJ4Mfly4Fpz7+GGiqqgItGiGJs2eDxf/9b0DdwTalysP7AgEoeIdYfeG2WCnxFdq9SEAdKEOdLKpz50DZRx+BHxYtAt/dcANexqHt5MlAi3Ud0txcfAEX2WhpbxmoKgDV+ExBUC+CFHuib2wkfW4oJ5bW1dWB0599hq92/Gb8eLD/6adB/Z49eKRxoMGGWjdv2OCzaIV+6eO+Evho7oYCI72PMAUUpWZ2E0VJ57GKyPZ6njIosHZ04JlYdq1aBb6dMQPsXLkSVG/dGlBl4cfFgQVff+331EVoH/dVVJRvFk55rSA8oe+/IG1tLanzqIroDSawIWfD3r1g35NPgn8XFICdjzwCLv3wg9/zfGFEZGbi6YuGM14rCAz14UCAAPnlgL3ouHSJ1HnBNMnlKxr27cNzfP07Px/seeIJ0LB/P3B7sRJzqMQVF4PJL77ot+tBENTHh/ONteB1qw0NDYTbIRqNstrWZJNOC0ZQFhCXzYbn1dr58MNg4w03gLP/+hew+GmeZfR994H46aRXVg8NCCK8r5xOp08SiXmtIOY+bl6IyaQso5eBpKEO0Wgh58miAn1TEzj+1lvgu7lzwaGXX/bK0TFYpr3xBr44y9dADAbhfVVXV+eT6/nMi8WKiiQXZUiAzYt6hdJRpJOqhDx2vR5c/PZb8N9Zs/AAyk4f3UQYPLkcTHv9dZ+13wUzUkb+ZiABBQpCnCOTxuGQS6xLgM6LHzbYJwv9Rc3WreD7G28ER157jXRS8IFInjsXJMya5ZO2uyBK54T6ME+r1wqCAmKjiRUVSZmmqyoqSJ+LSKVUiRHyoG43uPDNN2DTwoW4m9gXFL/0ku8yqUCQkXA7CnyWhdxrBWlpbiX2KvTpbRg6TrOZdCb2UFlO6k/MSiXuJv7tsceAw4tiqUQI4uNBzh13UNpmFwxpBKExpVQqgldBWtvaCPPhMCTiem/b7on28mVS5/lrZWEoUrdrF9i8eDHlRvzYlSt9Us6BHRtTQ7S9U2cI3iGWSqkCKNbJ9YIhFFoBoK7rU128SOq8yLFjqRJhWKK7cgVXEtX585S1yY+NxdMLUQ1DLCIcYlktVp9N/FCi5hazmbAXgSViclPgBNhIZllkcrmUJJEbztgNBjylkerCBcrazLnzTsra6gIWCgkn3Vpa230WRkCJgjQ1tRBmeENSUyj7xr3xZIXrAg6MTacD2373O6BvbqakPfm4cUBeWEhJW10wJGJC91tVZWXw2iAYOp2eUINhgYCyxLZky7FhcOUe+cbCEIApyc6HHqLMcE9d5FFe0CvY8XGEmTB0Op3P8sJSoiAVFZWE4bachDjKDHWFF0naqH6SDWe0NTX4oi0qSJ0/n5J2ruFGUpIJS4EpFKrg7kFa24hdvazo6HNUtA+uPd3Ihr1zA7FuIYQ59/XXlKxq5EREgJhJkyiRiSGT1hJ5xmg0urOxsSm4e5CmxmZCAXnZmZcAAJQJTzbsPWyDDA3U6QRHKQoboaq4DzsmmjA5QWVVlcPmw1B/ShSkpaXVYbfbCRWBFRtDLladALIl2YQJCYHPyBFitB4/DpRnz3rdTtKcOZTIwxs96hjR9qbGZnLDikFCiYKYzWZQWXmJUFAkLfU4FdfAaCstJXUeSygEorQ0qsQYMWBDLW8Rp6YCNgVLn9lxxA/a+oYGnyYao2y6s7m5hbAH4Wame/8YuoZZqSR9rjActDhkGvbvJ536tScJXiaeg+h0A5KUSBiQd7K03KdLKSlTkLKy0yai7UhqMmWGutaLeuYxEydSJcaIwWk24+UevEWSQboKHw4nJfksncslUATUXVNT49PSX5QpSGVVlQ1FPcOO2TExLawYOflw3B7oamtJp+6kuqDOSIGKYqZiL50kSFrqaaLtpaXlPs9gR5mCqJQqtKGxifDuRVJTCD/gUMGUg7QnK4jSkIYS7WVlpN3rXXjbewsLx/1GtP3c+fM+T3RMachl+akzhFOwwokTtlN1DW0NYUDngAiTkgA/HNk7ZGydnUBNMlC0C5jNJp0eCGIwdNyM9EqifefPV4ROD4Jx5uw5QoF5WRmnAACUuOP0fSSJGAzh+RBydJBcatATIckhrnBCIeHDtVOnc1w4X+Hz0sOUKsiRw0dtFovVY9qfxmS6hEUFlFTm98Zo9HYsPFLxJlC0CxbJFEyiiRN+Jtp+7uwFv2TQpnxVy7nzFYTeLFHxpJ+oaN+bxAN+S00zzFCc9t6EFJOYh4KYDD0vJ4swCG/Pnn2E9xnVUK4g27ftIBScP2b0MWw86W37Vo2GdNKBiMxMby8/IrGbvL8XyXgRRZMnbqIxGB5LKXQ6nfPChQq/VCKivgc5d8Fidzg8ghdpDBgVTyveRMU1GktKSJ3HiYgA3BivSrePSIwUrBEhU+1LNGE8of1x8mSZUafT+2yZbU8oVxC9Xo+WlBwmXBopnkzNMIvs+nSMeIqC50YS3pSg6AIaYqYThjTiCn9UDmEUxu7d+/0yvAK+Shy3+7e9hArCzUirYsqkXrtEyObqBdfqW4TxPwxkaNUwxFOLvyParlAo7RcuXPRboUefKEhZWbmtvb2d8ENI581d4237TYcPA4JJ+0HhbVzQSMXbhNhDmQeBYLpBMn0qYeKu3bv3Gax+LITqs9Sj27btIuyXRZMm7KZzEa/qIqNOJ+lehB8bG5jCLyGOt+UV6IzBl4sR5I/bxYyQeGTeRgGKbtu2I9RSjxKzbdsOA4qiHh4ImM8zCSeO3+xt+63HCJcHDIpw4CIJ3IR5OQbPEPJkRd604Cui7SdLTxmVSpWXggwNnymITqdH9+8/ROjWjVq86Ctvc2a1lZWRPjdp9mxvLj0igYbQAxAx2CEakp52gJOUSBhPtHnzT34vqeUzBcH4/vvNeqIIX4ZY3CGeMvlbb9pWXbhA2g6Jys/3Sea/4QxMwk3bE9cgh2iRt9z0GdH29naFDbNtvRKCBD69S6qrq51lZeWELjnZzQu/BBBEOj7L2NJCOoiOJ5eDqIICspcekQzVTdubwbiKOclJxwVjRp0i2vfddz/4JiX9APj8Mbplyy+dRCUS2NHyVvGUSV5NHDbu20f63LjiYm8uHWaIDCZkPuauFW8RbW9XKG2//bbHb3MfPfG5gpw4UWq7cKGS8MPJly/7O43FJD2u9MYOSfdB7tjhCkss9vk1+OPyfuZmphMurNuw4b+dvsxc0h9+GYh/8snnHUTWAkMoNMgWLSBdJrW9rIx0XJYgPn7YlIn2NTwKMlM6+6kzCTEZ5ujbb/2EaF+7QmHb/ds+4rogfsAvClJdXeMoP3Wa0H8tnTvnv7BYRGqRB2b4tZ8iHLIOioylS0mfO5KACKo6DRVDS0uf+8TFk75lx8UShml/uWat2uHw+bKPPvGbK+fjjz/XAIIyCXSEY5Hffivh2HMw1O/ZQ1qm8DBrcPAoKEKkb2oi3E5jszXyPnqPS5erzQcOlPhv2pwAvylIU1OTe9OmLYTjIcmUyXuQ9NQDZNpt2L+ftEwciQQk33gj6fNHCtKcHK/b6CtlU/SK296AeTyPIRQKAPrB+x97FXFBBX6dDFi7dp22s49M3PGPPPgSxGQO2VNh1WhA85EjpGXK9lG5sOEEh4I6j06CjPHcnOyDEbNnEMZc/bZrj666usanWRMHg18VxGazgU8/+YKwuj1LHtUWtXjR+2TabfDC3Rs/ZQoQJieTPn8kwI+L87oNXf31if4hJtMQe9/dLxMd29mpc6xf/21A5j164/fp5H37DpjPnT9H6JWQLZr/DScxYchBVpc2byZd5BNj3KpVpM8dCWBDUW9w2mwA7fX7yJcteYsdLSe03P/19TeatrZ2v8Zc9UVA4i0+/OAzFQDA4wuAaDSQ8IdHn6TzuEMaezqMRtB8+DBpeVIXLAC82FjS5w9n6Gw2qfXkPeld2o03OnebbP7c74mOvXSp2rR9286ATAoSERAFaWhocH/++b8IrTZWVKQq9r57/m+obVZu3EhaHpjDAYV//CPp84czopQUr2s89sxlBotFzQmPrXyO6DiLxer6y19ep6wqGRUELGJv06bNpgsXKgmHWqIJRQfF06YQhjz3RXNJCTC2tZGWJ2PJEiAdNYr0+cMVKlIlmdvbr76AIHvCow8/AXO5hLOG//73f5RKpe+qRZEhoCGtb7/9dyVmkBHti3/ovrc5qcknBtuW02oFl7dsIS0LNryb/uab4SjfXlAR1Nn14JLftvRtXnYW4Trzw0eO63744Ue/5LoaCgG9G9ra2tA33ninHUU9JxABBIHEx1f9gc7nD7pbuLB+vVfySHNyQNGTT3rVxnBDRIGHT3X+PBAU5m+MvGnBOqL9ra1t1jff+FvA5zyICPjjsrz8tH3Dt98RfjlMqbQjafXjqyAGY1BGm0Wlwj1a3jBu1SqQunChV20MJ7zNio+63cBitZQnrHror0T7rVar+9VX31TabDa/pPEZKkFRl+zM6bO2nNxsZmxMtIc1yIyQqJgRksv6U6exu3bARQn6xka8iL036xfiZ8zA89FSkXIzlBEmJ4OCxx/3qg2DQtFiSYy5F+bzPRaEoHis1dftR44cC0yo7iAICgXBOHToiGn2nFkIj8f1iIzjJMTXMaQRV/TlZwasK2zRaHCXrTfhEXQGA+9FbDodJXX6QpXooiKQ5mWtc53ZsF1vNW8j2rf5h5861q3b4H3SLR8SNAricrnAyZNllmnTpnA5HI6HXJzEhGpAo6lNlVUzB2qr49IlPISE5kUUKtYDJUyfDuKnTQNmlQo3NHtPdg13UhctAjETJnjVhlqt2mIw6D2eMidKTxk+/OBjjSvIv1Pv1lH6gFGjcpl/+9trMWw2m1B5WzdsfEi987dnB2pn4rPPgryHHqJMLkxJlOfO4ZV2DU1NwKxWA7fDgSshUyDA05pifxCdjvdAiEwG2GIx7mwgwmmx4MNBh8mEL/zClLqTZHEgX7H4+++BPD/fqzaqqi7co9VqrouOuHTpsmn16mcUwWp39CToFARj9uwZ7OeeezoG6sOQaFm3YbVm977H+msDuzlv27YNIJGRPpOTajCFUZw9C65s3w6aDh70urKTtzxw7tyQMyL25sSJQ1lut7s7pUm7QmH785P/19re7t/0PWQJmiFWT+rq6p0tLW22KVOLeRCBEgvyxhx32WxOc3XtpL7acFqteIXW5LlzfS4vVbCEQjwDPTbuH33//XgvhCmNrbPT77JIc3PBqHvv9aoNq9Va29bW3O3a7ezsdDzzzEutzc2tIaEcIFgVBFxVEkdHh8YxadIEhKin44/OPQkLhS2G8xemAhQlNDY6qqpARFZWSBbOwYZpkXl5IPeee/DycR3V1X5VlLSbbgLxU6d61YZe33lAo1HtBld7DsdTT73Q2tjYGNxGRy+CVkEwLl+usWs0GufEiRO4EOSpJEhKUiUzKuqSofzMbICihJnNWo4dAxmLFwMGl+sXmakGG2ViSp65bBkeE4UnqiCZD2woYIrpbT2VtraW9SaToaKzU+d86unnWpuamr1L8BsAglpBwNX17HalSm2bPHkCDyKweDnxcXW83OwD+lNnZqN2u0eGZMwYbistBem33OKVVyvQYD1KzIQJIHH2bDztqq97k5nvvON1kGJzc8NHjU3NzU89/VxbU2PoKQcIBQXBqKmpddReqbfOmDGNsCdhRkjUwvGFOwznLhS5jEaPzNRmpRL/w1OOepkALdBgdknazTcDzcWLuH3iC4QpKSDvwQe9asPpdKpLS4+/9vzzL7c2NjSF1LCqJyGhIBhNjU3OqkuXLVOKJyMwDHuEyMBcrlEyfcpPNqVKYmtuGd17P3ZD2fR6fG4j1IHZbNxGcJhMQHnmDOXtZyxZ4rX9UV9ff3j58js/bW1tCxmDnIiQURCMlpZW16HDR80zZkzjEM2TQDDsEo0v3E8XCq8YL1ZNAy7XdXaJ8uxZ3Ls1HLIqQjQaPonpdjpB+8mTlLY9btUqfB0IWeh0Ovjuu43rt2zZQioRRzARUgqCodfp3QcPHjakp6exoqIiCQ1zJCXpsmhi0Vbz5ZpcZ6fuuqWCilOn8BxNWE9Co4fcx/cgdtIk3M5SlBMWgx0ydBYLTHr+ecDgcEidD8MMwGQywauvvvp0bW1tKyVCBZCQvENMJhM4cKDEyGKxQHZ2NpvILoF5PINkWvGPEAzrzLVXinr2JprKStBUUgJiJk8GbJL1u4OJ2OJiYGhuBpqqKq/bii4qArl33UXiTAgwmSwAX3WE2FeuXPkHh8MR9DPlAxGSCgKuxW6VlZVbW1pbbUXjCwntEmwYwsvKPMvLyd5tbWjM6NmbYEZ71aZNeHiINDvb6+zlgQSTHbMZmg4d6jP/1GBJX7wY75WGdn0awB5W9Gs98qlTp7Z9+umnXpW3CBZCVkG6qLtS7yg9UWYcPWYUWyQSEvpxmRGSDvHUyVsYEnG9uaa2CLU78PGD2+EADXv34nm1BPHxlKS3CRQ0BgNXkuqtWwlzUA2WyS+9hHvKBgvWY2DK0fMBs3bt2rX79u0jn6wsiAh5BcHo6NC6d+3cbeAgCJqVlcEhiuGC6HQUSU66FDFz+jq3zU631NWP6fr8prY2cPnHH0HzoUN4sKEkIyMkl96yBAIgy80lvfSYKRCA4hdfHNSx2Fd8dUjlaQZ++OGHT1VVVSlICRFkDAsFAV3h8qVl1vLT54zZ2ZmsvnoTGpPhEuSNPioqnrjJqTfwbC2tadiDENtnam/Hc/2e//proDhzpjtYkC0We6UwKIriibbdTieugL4czmE9oU2vH7L7Fxbw28auXl0RnZc3YDdKp2O9BhvQCL4Tk8mkuvfee58amtTBS+gOvPsB6/KX3nqL8O67lkvYbHa/d7atrT1WuXXbSu2x40uBy80mOgZ7smI3HhIZCbiRkVcnGyEI94KhLld3KThMASxqNb5oq0spzCoVvvCqKzwEgmG8nABLJMJdqTHjx4PEOXMAQkF6zy7sRiP4ccmSQa2IpPP5CtmCuZ9JZkzbMmZ88T+FQlGfPnBMsRkMZretQURJScn306dPX05e+uBiWCpIF0lJifSnnl4dkZ2VwR/oWLtaI9bsPXCv+rc996F2+4DHU03GkiUg//HHgdDLNeBdNB48CHb0MxvOiomukMyavk46Z9Zm6NoNP3HitAoIggiLEWJDKcYgCnmuXLlyxZo1a8gnKQsyhrWCdFE8ZRLnwQfukyQmxhP2ED1xW62weu/+FR0HDi2ztyv8migLM7QnPvMMGH3ffZS0t/2BB3B3dk/4eWN+lsya/r0wf+x1KZXYbE7EuHHjPdIsYb0FphxEwykC3IWFhUmnTp0irnUQgowIBcFgMpnghhtmcR9++AEJn88bVBSeufZKimbfgXsMZ87Pcur1fstNmjR3Lpj93nt4xkdv6LxyBWxauNDFiostFxbm7xRPLd7KEIsIk0IjCDclL6/wt673NBod7zEGqRg4lZWVR3NyckI/TKEHI0ZBuhCLxeDmmxfxbl68QCwSCgelKG67nW6qupyvO3V6puHM2XmODm2Cr+VMmDED3PDxx14rSXX5yU/UNvOHAx3HYDC5hYWTzmKKAcNwv3ZGX6xZs+atlStXPk9W1mBkxClITxYunM9duHCeKDMzfcChV0+sTc1x+jPnZlvq6sfoy8/MQl0un9gsKfPn40riDVar5fLp06UL+j8KRUsOHdU/9ednz/N4PNIFCefNmzd2165dwyoNzIhWkC5mzJjOXLBgrqioqABxu91DfnRam1sSTJerc8119RNsTS2pdo0m2tmpS6JCtqInnwT5v/+9V22cPVt2o9ls8sgI0dHR6Th69Lh+/foNerVa4968efNnS5cuJVULoqGhoTwnJ6fA3E+xzlAkrCA9iIyU0W+7fRm/ePJEXlSUjNCbM1isLa1yl8kUaW1sTrY2t2ShbhffrlTzXWZzNEBRfGjnMpvpLrOFgbpcNBoDdtIFAnv3oi4azcCURrTCPJ7jxrfeHsePkJJe3ldZeX55Z2cHXu0URYG74mKlZdeu3YZjR0+YtD2qBBcUFKSUlZVdAAAMeVz3wgsvPPTmm2/+i6yMwUpYQfpgwoQi5qTiibzp06byBHzewP5NH8Jmc+Ly8gp30Gg0UgZJVdWFFWfPnj28e/du/dGjpeb6+oY+FzC9//77L6xevfr1obRfWVm5t7CwcK7ZbA7ptR9EhBVkEIwePYpRVFTAnTq9mBMfG0sYyuJr4uOTHoqLSxwwH1hPMEMbM7pnz5k9quRgCWGR/t4gCAJ27Njx8bRp0waVc7ShoeH0tGnT5jQ2NnYMRbZQIawgQ0QoFECjR+eyC4sKkYz0NFZGRhoTgiCfh+zQaDRWXl7hFjabk0G0H9NZCKLhbtmrinHVPatSqSqSkpJGDdU2eP311x/905/+9AaXyxX3cYh7586dX9xzzz1Pq9XqoKkIRTVhBfESgYAPJSYmMhIS4lijx4xmJCbEsRMS4mE2m035sEwqjZydnp79xVVlgPDegUb7n2IQ8cYbb/zpxRdf/IjM9RISEqR33333kqVLl96WkJAQiSAIXFVVZSwpKdm2a9euzbt27bro7WcKdsIK4kPGjsuDr2Wsh6OioqDoaDkcExsDQxCgQ32UnkCvJj13Ox1OV119vVOt6nB2dGhQk8niqK9vsP/www8/FRQU3DSY6zc0NJy55lkadrZBmDCEJCQkIPX19QfQAVAqlZeysrJ8PqEZJkzQgSAI+/3333/JaDQqCHSjc/369e9JpVKPHGFhhk54iBXCSKVSZOrUqcUymQyvk2YymVoPHTp0orGxMagqxYYJE2aYEnrrSsOE8SNhBQkTph9CN5vzAKRl55Z1vVa2tTyh7+zEs2zI5NHPC8WSpdhrq8VS2Vx/5Z5AykkVcUkp69kcTjb2Wqft+FHV3vZmoGUaDgxbBUG43O4K+DDM6M4Ox2SxEnvuGy5gytH1uSxm06lAyyORyh6JS0r+ouv9ubLSkHQIhYdYYcL0w7DtQTRK5equ11arZdiHROi02vcsJhNe+sFkNJwPtDzDhWGrIC2N9QMuMx1OqNpb/xtoGYYjIaEgIknETVw+fzaXx89jsTnJqNtlMRkNZ8wm08kOtWqNw2439j4nNjGpe/yr1ag/NhuNF8heH+HxUsQR0mew13ab7biqvW0tB0HGRMXE3o9webPoDJhv1OlOG3S6XzRq1Teo2432On+sOEL66LXzGzADms1mR0ZEyZ8VisQztBr1h23NTd3FLukwDEdIZb/n8vmTeQLROAigDLPZXGky6k+oFYrPHHa7x0SgTB79PGZfYa9NBkNJZ4dmQ+9jOAiSIYqQ3scXCItYbE7ate/xlMlo3Id9JrSf0m4cBIkXRUgf5vL44zlcbiZAUbtRrzttMhiOatSqz1xOpwM7DmYyGVHRMZ+w2Oysnud3/R52m61W1d72Dsmfwu8EteEkkkTMjolP+BJmMJL7Osblcinqqi8tMhuNZT23jykc3/1rN9fXLexQq7aDaz9UhCzyEey12WQ6VVNZUTiQHBKZbHJcYvKRa+esN+p1ByOjY9YQ2XB2m+1cXfWlm2xWa2OP82+JS0ze0nXN1qaG+1LSM0todDoeSq5RKf+vpaH+Xey1QCSeGpeY9D3MYPS1NtzY1tz0uKq97ZueG9Oyc8u6jHSNSrmmpaF+Zdc+iEaD5TFxr8jk8uf7sjudDsflxiu1S4wG/XXDUYhGg+QxcU/L5PLXAACESS6cDkdbc0P9zfpObRkb4XIycnL7jK03m0zHaiorJve1P9gIaiMdhuGYLuWw22yVWrX69bbmppU6bccnbpfLAK4uCopKSc/8hcViCfwhE4vNnhoZHfNZX98dk8Uak5yeuYcOw4QFxmk0GjshOfXnLuXoiUgSMT0pNX13P8qBwYuOi/86OjZ+0DXSYhOSPpTJ5S92yWy32S5oNeqP9Drd5q7vEWYwMpLS0g8hPF5Oz3MTU1Lfksnlf+tLOa6dG52QnLKHxxeMvRqQDEwAAFuvw0zX/qyDlTsYCOohlrZDs1EcEXGTqr39vU5tx3VJzTgI8ml6zqhj2H1Fo9PlogjpKkVri8+7bjqdjidj0GrU7yjbWt+zWa1KnkBQII+N+wjh8vCcUEwWKz06Nv6l5oa653qfz+ZwcsHVu0jfqVZ/aTIaKm1WSwkdhgUx8QnrAAS61sJbFa0tL6mVin+4nE67RCpbIo+N+xBmMBKwG10mj/5Up9MeMxuN/TogRBLJzRKp9LGu94rWlocVrS1fdb1nMJmxqZnZvzJZrLE0Ol0Sl5j81eWK8/gTXiASzxKIxM90HWu32aqVbS2Pd6jVv9FhmIP1LBGRka9g8qAQ0HG43Amq9rYz58pKeQRu3pAMngxqBcFujOrKi7cT7bOYzVUmo/EQl8fD10YgPH6+v+TSKJUvtzTWv9b13qjXn6o1Vs3MHp13BmYw8CewWCZ7rK258UWXy+Wx/ttqMR+oq768xGG3d5eqlUhlt127+XHampv+pGpv677BOtSqLVarpTotK+eqhwoCLIk08lGz0fiH/mSNio3/c9drs8m4tadyYDjs9pbWpobfJaVl4Ol62BzOJJ5AMNWo1x+SRkU90XUcCoClrvrSdJvV2gau/jaWlsb6v1rMpgtOp7NV36k9PuQvMgQIagXpgicQjEEQ3lQOFxnFYDIRq9lcYzQYqhyO/xnndDrdb2sfOtRKj9yzqNvtaG9pfikuKXkzuGrc8VkcTp7ZaPSojVZXffnWnsqBIYqI6H4QuFwujVqpWNP7PLPReMFo0G/k8QV4cmiBUDi/PznpMExnsVjd1ThNBmMFB0E8JkkddjumAGYIAHxYyOXxJ2AKwuPzb+g6plOj/qJLOa7/LlQ/9idDqBPUCsJgMkXxySlreXzBLT23I1wekMgiex/ux1IOEOEKPYvZVN3zPZvNiSdSEIfd7pHggEajdzsibFbr7t6esO5rmMwnuxQEZjBS+5OSyWSm9HTEyOTy57C//s7B4PL5eSwWmwkAxPnfdU2VA503HAlqBUlOz/yFzeFMAVc9JTUqheITl9OB3YQiNoeTLBCJ72ayWFmBlrMHvQ13sktd+3Se0Gi0ofxmpLyUdDrscqPu62RHg9zj6SuCVkFEEsncLuVwuVwd1RcrJjgc1z95IRotOkIW6XcFocN0OQCgpvd2Lo+f1/O91WppHmybTqcDM7bx4Q+CIHMhGo2BDdt6H8fisKd0vXY4HJf6a9NqtWIyurp6V0VryzNDcWSgAGghAHBvG18oLNYoFV8M9tzhQtC6eWk0enfqTofdfq63coCrLlfSeWSvXoNG6qkYE5/4Jp1Ovy7zIh2GeZHRMd2JmzGj1mI2D3pyUq/Vbu1+A0GiyCi5R75RnkAwiccXLOp6b9DrdvTXJup2u80m49Gu9xKp7HaIRvMYitJhmC+WRNzEYDIjem63GI3d2d4FQtEdApEop/e58ti4e0WSiFt6n9sbGIaD9mHcH0GrINjv0/WCxeFM4QkE3Wn1YRimxyYmvcjjC5b0OCZFJImYM5QLsNjsUdFxCX+IjI5ZzhMIpg32PDaHMzU5I+ugQCSewUGQSIFIPD01M/sAzGB0pwfVatRfEvUAfaHv1G6z22zdLtuo2Ni34pNSXuUgSDoHQeIj5dH3JKWmdxcfhCDIpFa0fzJQu2qFotvbxmAyC+KTUj6h0/83RwMzmeLE1LT/xKekbs0eM7Y5OS3jH137Wpsb/95jPgNOSE7dKY2MWsFBkBgOgmQlpKR9JIuO+TohJXVL9pix9bEJSe/2uPR1Q7TYxKRPJVLZLYmpaZ9xEIR0GlV/E7RarevUbopxJb5Po9OkEABwSkbWYavFss3ldBoQHn8+BAGh2+WqpdHpuKFKp9Gksij5Y50dmj39NoyC7mS0EAQxZXI5fkPodZ3/Mur1JYORzeFw1CJc7oSktPT9RPudDke7oqX5L0P5vE6n09LcUPdAckZWCYRPykEcsVT6MvZHdHxLQ/3vrWazR0Lq3nR2aHZzebzXIyKj8OqcIolklVAiuctkMPwCw3Q+m4PM73EfuBTtrV92nWs2GstU7e3Py+Ty97D3NDo9PiYhkTDmy+1y2bUd6vX/+zyO62QTiiWPYH/g6jqcOovZHBLhJkHbg7icTmtzQ91yt8ul69rG5nAWcvn8FZhyGA36bdWVFYUOh8PDFuiPDrVyrdvl8sgEyGSyxg62jZaG+uVWi4VwzYXdZquur62e6bDbCQvV9IdRrz9RW3WxyG6z9VmB0+lwKJrr65aplYp1g5a3seElRWvLEyiK4q5lCAA+j8+/k81BbupSDqvFUl5bVTnebDReFwnc1tz4fmtjwx1ul6vPAuxOh+PClepLs8xG47mubQa9/pDVYiF84HD519tqwUzQ9iDg6tNvn8VsypdGyu/ncLnY8InucjrKNSrVz0a9bofb7QZNV2pvlcnlf6bDDIlBp/u561yNStmdx9ZqtVR1vbaYzZfqqi9NlEVFPwgzmROwQw16XYnJoD8wWLkcdruutqqyWCKTLeYLRXfTaLQYrJ3ODs0GrUa92eV0XqeAVouloqc8/YHdZJcqzhcKReJF4oiIhXSYMQ73K7tdDSaDYZtaqfjJ5XQOOQ+uorXlH1qNepNILFkmEIvnAQBF4Q9+p7NUq1Hv0nVqt6NuN2FSa7VS8V1np3a3OEK6RCAQLoRotHisL3Y5HWd1ndptOq0W69ntPc9B3W5n7aXKRVHRMY8hPP4C7BnksNtO6bXaXXq9bu9Q5Q8UI9J1N1R6BitiVF+sSLeYTUPquXwJRKOxs0bnVTAYjBRw9eHwaUtD/aCST4fpn6DuQcL0DU8gKJLHxr9pMZl2crjchV3KAfAZc/1PgZVu+BBWkBAEotE4MfGJX7E5nDHI1aFnN1aL5UBnR0f/joowgyZojfQwfcNkMsUw7Fll02wy/lJXfem2wEg1PAn3IIPDAQDaYxUf2meFJn9gs1pbL549M0ogEhXDMCOXRqMDq9VcbtTrywIpV5gwYUYY4SFWmDD9EFaQMGH6IawgYcL0Q1hBwoTph7CChAnTD/8fAAD///B6n72Zi7x5AAAAAElFTkSuQmCC;imageBorder=default;" vertex="1" parent="1">
          <mxGeometry x="40" y="10" width="100" height="100" as="geometry" />
        </mxCell>
        <mxCell id="9cJPVwpwHsh4F_o2YOtW-7" style="edgeStyle=orthogonalEdgeStyle;rounded=0;orthogonalLoop=1;jettySize=auto;html=1;exitX=0.25;exitY=1;exitDx=0;exitDy=0;entryX=0.17;entryY=-0.019;entryDx=0;entryDy=0;entryPerimeter=0;" edge="1" parent="1" source="9cJPVwpwHsh4F_o2YOtW-5" target="9cJPVwpwHsh4F_o2YOtW-6">
          <mxGeometry relative="1" as="geometry" />
        </mxCell>
        <mxCell id="9cJPVwpwHsh4F_o2YOtW-8" value="Sumbit files" style="edgeLabel;html=1;align=center;verticalAlign=middle;resizable=0;points=[];" vertex="1" connectable="0" parent="9cJPVwpwHsh4F_o2YOtW-7">
          <mxGeometry x="-0.2587" y="-1" relative="1" as="geometry">
            <mxPoint as="offset" />
          </mxGeometry>
        </mxCell>
        <mxCell id="9cJPVwpwHsh4F_o2YOtW-5" value="" style="shape=image;imageAspect=0;aspect=fixed;verticalLabelPosition=bottom;verticalAlign=top;image=data:image/jpeg,/9j/4AAQSkZJRgABAQAAAQABAAD/2wBDAAMCAgICAgMCAgIDAwMDBAYEBAQEBAgGBgUGCQgKCgkICQkKDA8MCgsOCwkJDRENDg8QEBEQCgwSExIQEw8QEBD/2wBDAQMDAwQDBAgEBAgQCwkLEBAQEBAQEBAQEBAQEBAQEBAQEBAQEBAQEBAQEBAQEBAQEBAQEBAQEBAQEBAQEBAQEBD/wAARCAGfAwUDASIAAhEBAxEB/8QAHgABAAIDAAMBAQAAAAAAAAAAAAgJBgcKAwQFAQL/xABREAABAwMDAgQEAQkFBAUJCQAAAQIDBAUGBwgREiEJEzFBFCJRYTIVFhcjQlJicYEzcnORoRhTgpIkNEOiwhljZqOxssHD0SUmNURkg5Ok8P/EABQBAQAAAAAAAAAAAAAAAAAAAAD/xAAUEQEAAAAAAAAAAAAAAAAAAAAA/9oADAMBAAIRAxEAPwC1MAAAAAAAAAAAAAAAAAAAAAAAAAAAAAAAAAAAAAAAAAAAAAAAAAAAAAAAAAAAAAAAAAAAAAAAAAAAAAAAAAAAAAAAAAAAAAAAAAAAAAAAAAAAAAAAAAAAAAAAAAAAAAAAAAAAAAAAAAAAAAAAAAAAAAAAAAAAAAAAAAAAAAAAAAAAAAAAAAAAAAAAAAAAAAAAAAAAAAAAAAAAAAAAAAAAAAAAAAAAAAAAAAAAAAAAAAAAAAAAAAAAAAAAAAAAAAAAAAAAAAAAAAAAAAAAAAAAAAAAAAAAAAAAAAAAAAAAAAAAAAAAAAAAAAAAAAAAAAAAAAAAAAAAAH8SyxwRPmmkbHHG1XPe5eEaid1VV9kMcwrU/TXUqmkrNO9QcbyiCL+0ks11grWs/vLE53H9QMmAAAAAAAAAAAAAAAAAAAAAAAAAAAAAAAAAAAAAAAAAAAAAAAAAAAAAAAAAAAAAAAAAAAAAAAAAAAAAAAAAAAAAAAAAAAAAAAAAAAAAAAAAAAAAAAAAAAAAAAAAAAAAAABFXxLtc/0I7Vcj/J1Z5F9zP/7sWzpdw9vxDXfESJx3Tpp2zcOT0e5n1QoOs18vWOXOC9Y9d6213Cld1wVdFUPgmid9WvYqOav3RScfi/65/pG3D0ultprPMs+nFF8LKjXctdcqhGyVDvv0sSCPj2cx/wBSCDGOkcjGNVznLwiInKqv0AvX8KrUrWzVjb3ccs1jzGsyJkd8lt1kqK5jXVK00MUayOfMidUyLI9zUc9VdzG5OeOOJoGqdqukrNDdu+BaYOp0hq7PZ4VuDUT/APPTczVS/wD80knH24NrAAAAAAAAAAAAAAAAAAAAAAAAAAAAAAAAAAAAAAAAAAAAAAAAAAAAAAAAAAAAAAAAAAAAAAAAAAAAAAAAAAAAAAAAAAAAAAAAAAAAAAAAAAAAAAAAAAAAAAAAAAAAMO1i1Ls+jmleVapX7pWjxi1VFxdGrunznsYvlxIv7z39LE+7kMxK4PGh1t/NvSzGNCrVV9NZmFb+Vboxru6UFK5PLY5Po+dWuRfrTqBUVleTXnNcnu+Y5HVuqrrfK6e5V07vWWeaRZJHf1c5VN8eHzo3+m3dhhGPVdJ59ps1V+cV1RW8t+Go+JEa5P3Xy+TEv+IRzLdvBS0b/JODZprpc6TpqL/WMsFre5vCpS0/Ek7mr7tfK9jf506gWZAAAAAAAAAAAAAAAAAAAAAAAAAAAAAAAAAAAAAAAAAAAAAAAAAAAAAAAAAAAAAAAAAAAAAAAAAAAAAAAAAAAAAAAAAAAAYnqTqzppo/YXZNqhnFnxm2pyjJrjVNiWVyJyrYmL80rv4WIrvsBlgIA6h+M3ttxqeSjwTFMuzGRjlRKhtPHQUr0+qOmd5v+cSGr5PHLo0qlbDtlmdT+z3ZgjX/APL8Eqf6gWnArnw7xsdD7nPHBm+lOY2FH9nS0UtPcI41+q8uidx/Jqr9iWejG8Pbdr8+Kj0y1VtFddJU5S01TnUdfynqiU8yNe/j3ViOb9wNygAAAAAAAAGIarat6d6I4XWag6oZRS2Kx0Sox9RPy50kiovTFGxqK6SR3C8MaiqvCrxwigZeConXfxpM1utVUWfbzgdHY6Br3NZeb+1Kmslb7OZTtVIoV+znS/0Ik5Vv23i5hUy1V03CZdTOlXu21VSW1jf7raVI0T+gHRYDm3tm8XdfaJmzUm5DUhysXlEqMlq6hv8AVsr3NX+qG5dOvFf3i4LPE285fasyoo3JzTX21xKqt9082nSKTn7uc7j7+gF8YIFbdfF40O1SqqXG9W7XLpve6hyRsqqif4m0yuXsnNRw10HK/wC8YjG+8ik76SrpK+lhrqCqiqaaojbLDNC9HskY5OWua5OyoqKioqeoHmAAAAAAAAOeDf8A62/p43T5llFFV/EWa0VH5v2ZUdyz4SkVWdbF/dkl86VP8Uur3u60roLtizjPaSr+HuzqBbXZ3Ndw9K6qXyYnt+qx9Sy/yiU5ywPJTU1RW1MVHSQPmnne2KKONquc97l4RqInqqqqJwdLG2rSSn0K0GwjSmGONs1gtEMVarPwyVr+ZKp6fZ075XfyUpG8NXRv9Mm7fEaespfOtOJOdlNx5TlvTSq1YEX2VFqXU6Ki+qK46BQAAAAAAAAAAAAAAAAAAAAAAAAAAAAAAAAAAAAAAAAAAAAAAAAAAAAAAAAAAAAAAAAAAAAAAAAAAAAAAAAAAAAAAAAABWl4nviB3TTueo266G5BJR5G+NPzlvtFMrZra1yIraSne1eWTuaqK96Lyxqo1PmVVYFlpzkb1KjWFu5PN7HrXkl2vN7s91npqaavf8vwKvV9M6GNOGRxPicx6NYiJ8/pzyTd8P3xP8ou2VWvRHcpe23GO7Sso7JlU6NZPHUOXiOCscnCPa9eGtm46kcqdauR3UyU28nw88F3d5fi+a1mV1OK3S0MWhulTSUbZpLjQcq5kfzORGSMerul6o5EbI5Fa7hqIFBYOh7SPw/NpejdLC2x6R2m93CJEV1zyONtzqXvT9tPORY43f4TGJ9jekeI4pDR/k+LGLSyl448htFGkfH93p4A5bT+4ZpqaZlRTyvilicj2PY5Wua5F5RUVO6Ki+50W6s7Gdq2stFNBlejlhpKyVF4udlp222sY72d5kCN61T6SI5v1RSqHel4aGoO2alqdQcFrqnMdPY3czVXkoldamqvb4pjE6XR+iecxEbz+JrOU5DKdnvisak6SVlDhGvdXXZrhfywMuMi+bdrY30RySOXmpjT3Y9etE/C/hEYtyeGZniuoeLW3NcIv1JebHd4G1NFXUr+uOaNfp7oqLyitXhWqioqIqKhy4k1PDU3q1m3TUaHTfObs79G+XVTY6lZn/JaK13DWVbeezWKvS2X+Hh/qzhQvUB+IqKiKi8op+gADSO8LczYtquit01Hr44Ku8TKlBYLbI7j4yvei9CLx38tiI6R6px8rFRF5VoGQ5xuY0G011CtOleeaoWSx5Pe4fPo6KsmViKxXI1vmSceXEr1XhiSOar+F6eeD4+7zQWLcrt9ynSqGojp7lXQMq7RUP46Y6+BySQ9S+zXOb5bl9myOVO5zsZznGValZfds8ze81F2vl7qn1dbVzu5dJI5fZPRrUThrWpwjWoiIiIiIXAeDzrLrJqHphkOFZzR1dzxTD5YKWw36pk5exXIqvt/K95Gxt6HtXv0NejV7LGiBUBTYFm9bl02AW/EbxWZLT1UtDJaKWjkmq21Ebla+PymIrlc1yKioiexJvAvCu3mZzSR19Rp/QYxTytR0br9dIoJFRfrDGr5WL9nsapelZsCwjHL9d8qsGIWa3Xm/wAjZbrcKWhjiqa56NRqLNI1Ec/hGp6qv1PvAUa3/wAHveDZ6V1RboMLvkjUVUgoL4rHu+yLURxN/wA3IRe1X0F1l0NuLLXqzpxe8aklcrIZaynX4edU9UinbzFLx/A5TprPj5bh+K57j1Ziea47b75ZrhGsdTQ19O2aGVv3a5FTlPVF9UXunCgct5L/AGO+IXnm1280mH5dU1uR6ZVEvTUWtz+ue19S956NXL8vCqquh5Rju/HS5eozfxC/DiqNvTajWDRqGrr9O5ZUSvoHudLPYXvciN5evLpKdXKjUe75mqqNcq8o5YEgdSOJZZjmd4xa8yxC8U91st5pY6yhrKd3VHNC9OWuT3T7ovCovKKiKiofXKffCE3Z1WK5i/bFmtzVbHkb5KrGZJn9qS48dUlMir6MmajnInp5jeETmVS4IAAAAB46mop6Onlq6qZkMEDHSSSPcjWsYicq5VX0RETnkCpvxr9aPjcgwjQK11fMVthfk13Y13KLPJ1Q0rV+jmsSodx9JmqVfm0dz+sE+vOv2b6qySvdTXu6yLb0fyisoYuIqVqp7KkMcfP35NcWq13C+XSjstppX1VdcKiOlpoI05dLLI5GsYn3Vyon9QLhPBc0b/NvSHKdarlS9NXmVxS2297m9/gaPlHOav0fO+Vqp9YGljRguhWl9v0W0dw7Sq29Cx41aKehkkYnCTTo3maX+b5Ve9fu4zoAAAAAAAAAAAAAAAAAAAAAAAAAAAAAAAAAAAAAAAAAAAAAAAAAAAAAAAAAAAAAAAAAQE3eeK/p9oxX1uAaJUFFnOW0qvhqq98y/km3TJ2VquYvVUvRfVrHNanor+UVqT3qKeCrp5aWqhZNDMx0ckb2o5r2qnCoqL6oqduDnP3q7eKrbNuEyPTuKCRtink/KuPSv5XzLbO5yxJyv4ljVHwuX3dEq+6AWYeG34guVbj8myLS3Wuvtv51u6rrYJaWmbTR1FK1qJNSo1PV8fCSJyquc10nK8Rlghy86dZ/k+ledWLUbC7gtFe8erYq+jmTlU62Lz0uT9pjk5a5vo5rlReynSBt71txjcRpDjurWKPRtPeqZFqaXr6n0VWz5Z6d/wB2PRyc9upOlydnIBsYAAAAAAAAAAAAAAAAAAac3da90m2zQDKdU3LE650lP8HZYJE5Se4zfJA1U/aa1y+Y5P3I3nOPe71dskvNfkN+uE9fcrnUy1lZVTu6pJ55HK58jl93Ocqqq/VS0XxvNSqhH6a6P0lUrYFbV5JXw89nu5SnpXf0T4tP+IqtAnf4UW02j1s1TqdX84tjanEcAnifTwTM5ir7svzxMVPRzIm8SuT6rCiorXOQu5NAbDdI6XRjalgGMNpkir7jbI77dF4+Z1XWIkzkd9VY17Iv5RIb/AAAAeGso6S4Uk9BX0sNTS1MboZoJmI+OWNycOa5q9nNVFVFReyopoLWDfvtS0Pu0+OZtqtRS3qmcrJ7baYJbhPC9PVkvktcyJye7Xua77Hx9NPEj2d6o3aGwWnVmC0XGocjIYL7STW9sjl7IiTStSHlV7Iiv5VfRAKsPEj2ex7YdWWX7DaFY9P80fLVWhjeVS31DeFmolVe/S3qR0ar6sdx3VjlIgnQl4iOkFBrPtJzaiSkbU3HG6J2UWmRvdzJ6RrpH9H1V8HnR8e/mfXg57QL7vDB3BVOuu2W20F/rnVOR4JN+b1wkkdzJPCxiOpZl915hVGK5e7nwvVfUl0UxeC1qFPYtf8AKtO5ZlbR5Xjq1TWc9nVVHK1Y+3+FNUFzoAo18WzXWp1P3LTadUFb5lh03p0tkLGO5Y+vla2Srk/vIvlwr9PIX6l48sscMb5pXoxkbVc5yr2RE9VU5etQstrM+z7Jc6uDldVZFd6y7TKvqr55nyu/1eoHq4li96zjKrPhmOUi1V2v1fT22hhT/tJ5pGxxt/q5yHShoBoxjW33SHGtJsWjZ8NY6NsdRUIzpdWVTvmnqHfxPkVzvsio1OyIhS74T2AU2cbyLDX1sCTQYla6+/qxydutjEgjd/wyVMbk+7UL5AAAAAidu08RzRfazcJMOWmqcxzZkaPfZLbO2NlHynLfiqhUckKqndGta9/CoqtRFRVhknje6o/lTznaG4stu6ufh0uVQk/T9PN46efv5f8AQC27ILBZsqsVwxnI7bBcbVdqWWiraSdvVHPBI1WvY5PdFaqov8znP3hbfqrbNr/kul6JO+0wypX2Oom7unts3LoVVf2nN+aJy8Jy+J5cptM8RbRbdRWMxKCKoxDNVjWRtiuczXtq0ROXfCzoiJNwndWq1j+EVUarUVUi/wCN7p7TOt2mWq0DEbURz1mPVbuO72Oa2eBOf4VbUf8AOBVpjmQXjEshtmVY9XSUV0s1ZDX0VTGvzQzxPR8b0+6Oai/0OmTRnUi36waT4jqhbGtZBk9npbksTV58mSSNFki/mx/Uxfu1TmKL2fCOy6bJtmtptc8rpFxi+XK0NVy8qjVkbVIn9EquE+wEzwAAIv8AiSax/ob2kZhWUdV5F1ymNuL23h3DlfVo5syovqitp21DkVPdqEoCnnxp9Yvy/qliOidtquqlxS3Ou9xY13Za2rVEjY5PqyGNrk+1QoFbpLjwutH49U92NhvF0ga6zYFBJlFa+TsxJYVRtKnUvZFSofE/j3SN305Ijn9Nlkax0bZHIx/HU1F7O49OU9wOmjJNf9CcN60yzWjBrM5nqyuyGkgdz9Ol0iKq/bg1VkniObKsW60r9ebPVPb6NttJV1/Uv0RYInt/rzwc9QAvAyTxjtpFk622ikznIHJ2atDZ44mr/WomjVE/p/Q1Vknjh4jT9bcP2/Xiv9mvuV+ipOPurY4Zf8uf6lSgAsdv3jb611HV+bGjuE2/n8Px81XWcfz6JIuTXN+8X3ePeOr8n3TEbH1enwFia/p/l8Q+X/UhQZFiOm+oef1HwuCYHkWRzc9Pl2m1z1jufpxE1ygbvv3iOb18i6krte7xAjvago6Oi4/ksELFLCPCK3PZ9rJYM7091Sy665JerDVU93obhc6p1RO6lqEWOSHrcqr0xyRNcif+eVPREQgbp54ZG8vUJ8b26UvxukfxzVZFWRUSM5+sSqs/+UallXh+eH9kW0K737NMz1At17vWQW5ltdQ2ymkSlpmNlSRXJNJ0vkVVaif2bOO/rz2Ca4AAAAAAAAAAAAAAAAAAAAAAAAAAAAAAAAAAAAAAAAAAAAAAAAAAAAAAABBrxZdt36X9BP0o49Qebkum3mXBfLby+otT+Pi4/v5aNbMnPokciJ3cTlPFVUtNXUs1FW08c9PURuilikajmSMcnDmuReyoqKqKigcrhPHwnt1n6HdW3aL5fcvKxHUGoZFSulfxHQ3jhGwv7+iTIiQu/i8lV4Rqmht7O3Gt2xbgL/gUdNI3H6x63XHJ3cqktumc5WM6l9XRuR0Tl91j59FQ0THJJDI2WJ7mPYqOa5q8K1U9FRfZQOqYEW/Dv3UR7ntCaSe/V7Zc2xJI7TkTHO+edyN/U1nH0mY1VVe36xkqInCISkAAAAAAAAAAAAAAAAApD8ZW4z1m7W30sr+WUGHW+CNPoi1FVIv+sikGaKnSqrIKVXdKTStj5+nKonJYF41OK1Nt3GYnlqU6tpL3iMVOknHZ9RT1VR5if0ZNB/mV7oqovKL3A6oqOkp6CkgoaWNI4KeNsUbE9GsanCJ/kh5jBtDNSKDV/RzDNTbbOyWPI7LS10nQvKRzujTzo1/iZIj2L92qZyAK5vFb3r5DpJQUm33Sm8yW7I7/AEXxl+ulNJ0z0NA9XNZBE5O7JZeHKrkVHNYicf2iKljJzueILf7lke8vVWtukj3SU97WgjR37MNPEyGNE+3RG3/PkCPSqrlVzlVVXuqr7gACy7wuN4d8utwk2har3uSvsmQ0FRSYtV1cnW+il8p3VQq5fWJ7OpY0Vflc1GJyj0RtaT29Dlbyi8Kqcp6KZBp1l1dgGf43nNsmfFVY/dqS5xPavCo6GVr0/wDd4MeAlb4W1fNRb5NOo4lXpq23eCREX1atrqnf+81q/wBC/soa8JvG575vWxa5RRK9mP2y7XKVU9GtdSSUyKv/ABVLU/mqF8oHx8yinmxC+Q0rFfNJbalsbU9VcsTuE/zOW86p/XspzJa7adVOkms2baaVMbm/m5faygiVycdcDJXeTJ/J0fQ5Ps5AJkeCrVUsO5zK6aVUSaowar8pV9+mvolcn+Xf+il0xzmbIdcKXb3uawzUO7z+VZEqnWy8uVflZQ1LVikkdx6pGrmy8e/lIdGEM0NTDHUU8rJYpWo+ORjkc17VTlFRU7Kip7gf2aK3s6/TbbNuOU6k2tzPy55bLZY0eiKnx9QvRG/hezkjTrlVq+qRKnub1K+vGqpbjNtnxSppmvdR0+bUy1KN9GqtFWIxy/blVTn6uT6gUzXa63O+3Ssvd6r6iuuFwnkqqqqqJFfLPM9yue97l7uc5yqqqvqqnqgAe5ZbzdscvFFkFhuNRb7lbaiOro6unkVksE0bkcyRjk7o5HIioqe6Flu+HXyHcf4a+k+plyjiS/1WaU9DdmsRERldT0VfHO5ETs1sioyRG+zZGp7FYxs+8ahVSba8X0jSoejEzG8ZRLC7nhY30lDS0709vxw1qcfXn69w1gXTeCoyZNr2VOf1eW7PKzo59P8A8PoOVT//AHsUsl9XhTYPPhmzLGKyrhdFPk9fX3xzHJwqNfMsMS/ydFBG5Ps5AJfAADw1lXS2+knr62dkFPTRummlevDWManLnKvsiIiqcz+4XVWr1v1uzXVarc9UyO8T1VM1/wCKKkReinjX+5C2Nn/CXk+JFq3+iHaHmtdS1Xk3PJoW4xb+HcK6Ss5ZLwvqipTpUORU92p/M59APZtlsuN6uVJZrRRTVldXzx01LTQMV8k0z3I1jGtTurlcqIiJ6qpIqw+HBvYyPpWh0Fu0DXe9fXUdFwn3SeZi/wCnJnPhRaLM1V3VW7JrnSebaNPaV+QzK5vLHVaKkdIzn2ckj/NT/AUvcAoyx/wft4d5VqXGjw6xdXqtwvnX0/z+Hjl/05Nq4z4IGo1V0LmWu+N2z99LZaZ67j+SyPg5LeABXDjHgkaLUfQuY6w5pdVT8SW6CloUd/zsmVE/qbdxTwoNlmNOZJX4FdsikZ3R92vtSqc/VWwOiYv8lRU+xJu06nabX7Jp8KsWoONXHIaaF9RPaaS6wTVkUTXI1z3Qtcr2tRzmoqqnCKqIZMBqjEdqG2bBOh+K6C4LRTR/hqFsdPLOn/7sjXP/AO8bSpqamooGUtHTxQQxJ0sjiYjWtT6IidkQ8oAAAAfMyevdasau10Y/pdR0M9QjvorI3O5/0PpmGa01v5N0czu488fC4zdJ+fp00si//ADneum67c/en9dy3E6kzd+en86K1rEX7NbIjU/yLV/B31CzvULRrOKzPc1v2S1dHkzYoJ7vcpqySKJaWJehrpXOVreeV4TtyqlKhcJ4IsnOkGo0X7uSU7v86Vv/ANALJAAAAAAAAAAAAAAAAADUu47dBpNtZxW35Zqrc6uKG61zaCipKGFJ6qd3q97Y1c3lkbfme7nty1E5c5rVDbQMG0h1u0r14xaPMdJ80t+Q213DZVp3qk1M9U58ueFyJJC/+F7UXjunKdzOQAAAAAAAAAAAAAAAAAAAAAAAAAAAAAAAAIfeJvtd/wBoXQSoyHG7d5+Z4C2W7WtI2cyVVN0otVSp7qrmMR7UTur4mNT8SlDB1UFCHiX7Xf8AZ119qrxjlu8jDM7WW72fy28R00/UnxVInsnQ9yOaidkjljT2UDAdk25m47WddrRnT5Zn45XqlsySkZyvnUEjk6pEb7yRORsjfdVYreURynRHa7pbr3bKS82ithrKCvgjqqWphej45oXtRzHtcnZWq1UVF90U5YS4bwgd1n554ZU7aczuXVesUhdWY5JK/wCaptiu+enRV9XQvdyif7t6IicRqBZEAAAAAAAAAAAAAAACDXi56EVOqe3KHUSyUr57vprVPubmMb1OfbZkayrRE/h6YZVX2bC8o8OqKtoqS40c9vuFLFU0tVE6GeGViPZLG5FRzXNXsqKiqiovqilBG/7ZbfdqepMtzsdJNVadZLUyS2GuRFclI5VVy0My+0jE56VVfnYnUndHo0JB+EtvQtmD1v8Asx6mXZtLabxWLPildO9GxU1ZIvMlG5y9mtld8zPbzFcndZE4t6OVdFVqo5qqip3RU9i3Pwxt/wDqHqhf7Ztt1Rs1xyW4RUcslsyaFUdLFTQR9Str+pU6kRERrZkVXK5zGuRyu6wLNSkPxdtBrrp5uKfq3RUD/wA3dRIIp0nYxfLhuMEbYp4XL7Oc1jJU59et/H4VLvDCdYtHNPdecBuOm2ptijulluKIqt56ZaeZvPRPC9O8cjVVeHJ9VRUVFVFDmNBYdrL4M2uGN3moqNFsosuYWN71Wnhr6hKC4xN9mvRyeS/j060e3n16G+hFzWHapme3mNIdaMlxizXmRqOgx2hujLhdJUVPlc6ODqjgj9Pnle3lOVY2RUVoGlAF457JwhlWlemWXayahWLTLBbc6tvWQVbKSmZ36Wc93yvVEXpjY1HPc72a1V9gLMfBL0eqKemz3Xi40isjqkixe1SqnCva1Wz1ap9W9SUqIqe7XJ7FppgOg+juN6BaR4zpLiyI6ix6ibA+fo6XVVQqq6eocns6SRz3qnt1cJ2RDPgBUn4ye2atoMjte5/GLf12+5RQ2bJvKb3hqmJ001S/+F8aJCq+iLFEnq8tsPiZthWLajYldcFzazU92sd7pn0ldRzpyyWN3+qKi8Kjk4VqoioqKiKBy5Fr/hh+IPbpLbattGuF8ZTVNK1lHiV8q5EbHLEnCR2+d6/he3s2Jy9nJxH2VGdcP97WxrPNpmXTV8FPU3jTy6VLkst9a3q8rnlW0tVwnEczU9F7NkROpvfqayMAHVQaq3Q6F23cfoXlWkdfPHTT3elR9uqn89NNXROSSnkXjv0pI1qO47qxXJ7mvvDutGslt2sYrWa2ZVcLzdbqxa+2x1/Dqigtb2t+FgfIqdciqxPM5equakrWdujgzqbdvtmpM3uunNz1wxG25FZKlaOuorjcWUaxzoidUaPm6WPcnPCo1y8KiovdFQDnT1AwDL9LcyuuAZ5Y6m0X2y1DqarpZ28K1yejmr6OY5OHNcnLXNVFRVRUUx86C9xWmWx/c9ZGTaq5jhD6qkj8ulyGhyOjpq6lZ3XpbOj1RzO7l6JEezlVXp57laGs+3vw5NIJaiWk3S5bnEzFVYbLi8NHWTSfRHVyN+GYnPHK91T1RjuOAITQwvmcqMTs1Opzl9Gt+qn7UTrM5qd0ZG1GMbyvDUT+a9uVVVXjtyqn38xyay3mqdSYji8eO2KJ6rT0fxDqmok+klTUORFlk4/dayNO/RGzqdzjgGW6SaZ5HrLqZjel2JwLLdMkuEVDCvTykTXLzJK7+CNiPe5fZrFOmDB8Qsun2GWLBMcgWG1Y7baa10TF9UhgjbGzlfdeGpyvupAfwo9llZpVjjtw+ptoWnynJqTyrDQ1DOJLbbX91mci/hlmTp4T1bHwnPMjmpYmAAAFRnjY6t/lLNME0Rt9VzDZaKXIbkxruUWeocsUDXfRzI4pV/lOhWUbj3iaqSaz7mtRNQEqfPpKu9zUlvci8otFTcU9OqfTmKJjl493Ka3wbDr1qHmliwPG4POuuRXKmtdGz2WaaRsbefonLkVV9k5UC5vweNHfzE23VupdfS+XcdQ7o+pjereHfk+lV0MCL7/2nxL0+qSNX7k8jHNOcGs+mWAY5p3j7Om241a6a1U3KcK6OGNrEc7+JenlV91VVMjAFRXjGa1a2WDVS06QUGWVtqwS449Bc0o7e50CV8r5po5EqHtXmVGrE3iNV6URWr08ryW6lcfjT6RSZFpFiOslupldPh9zfba9zW90o61G9L3L9GzRRtT7zqBVRovqzlGhmqOOarYdOrLnj1aypbGrlayoi9JYH8fsSRq5jvs5eO50oacZ7j+qWA4/qNilT59pyS3QXKkcvHUjJGI7pcns5qqrXJ7ORU9jl6LePBj3C/l7DMg243+u6qzG3uvdha93d1DM9EqImp9I53Nf9/iF9kAswAAAAADV26isW37Y9XK5F4dBgt+e3+8lBNx/rwbRNQ7wXdO1HWFf/Qa9p/8A0pQObUt78EGTnTHU2L92/UTv86d3/wBCoQtt8Dup6sN1YpOf7O52qTj+9FUJ/wCACzsAAAAAAAAAAAAAAAHyMuyzHcExi65nlt1gtlmstJJXV1XMvDIYY2q5zl917J2RO6rwicqpzw7x90ORbrtZbhnlf59LYaPqocdtj3dqOha5elXInbzZF+d69+69KL0tbxLHxaN5v58ZFLtj05uvVYLBUo/KaqB/y11wjXltIip6xwKnLk95U44TykVa2wN47Lsy1txLcVh8GgtZImR3m4w0D6F73fCV1MruZY6prfWFGI57l9WIxXt4c1FOjZOeO/qVr+EDtOkw/Fqnc1m9t6Ltk0DqPGYZmfNT27n9ZU8L6Omc1Eavr5bFVFVJSykAAAAAAAAAAAAAAAAAAAAAAAAAAAAAAAAAaK3n7abXum0LvGnz2wxX6lT8pY7WSdvh7jG1ehFd7MkRXRv9eGv6uOWob1AHLHerNdcdvFdj99oJqG5Wyplo6ylnb0yQTxuVr43J7Oa5FRU+qH3tLNS8r0d1DsGp2EVy0l6x2tZWUz156X8dnxvRPVj2K5jk92ucnuWE+MFtP/N3IabdDhNs6bbfJI6DKooWfLBW8dMFWqJ6NlaiRuXsnW1i93SFZgHTPoJrTim4PSbHtWcOlT4K90yPlp1ejpKOpb8s1PJ/Ex6Obz7oiOTsqKbBKQ/Cn3afoU1XXR3Mrn5WG5/UxxQvlfxHb7uqIyGXv2a2VOmJ6/XylVURil3gAAAAAAAAAAAARP3keIZpXtWo58Zt7ocr1Ckj/UWKmnRI6NXJy2StkTnym8KipGn6xycdmtXrTYG0bdbhG7XTFmb4zF+TrvQvbS32yySo+W31Kpynft1xPRFcx/CdSIqKiOa5qBvAx3UDT3C9VMQuWB6g47R3yw3aJYaqjqmctenqjkVO7HtXhWvaqOaqIqKioimRACmHdB4Q2q2A3CqyTbzJJnONPV0qWuaSOK7UTfXp4VWsqURPRWcPX06F9Vlr4VW0u56EaXV+puoWP1NszjNneWtHWwOiqbbbYnr5cL2ORHMfI9Flci+yQoqIrVJ0gCrzxXt42qmlOqGIaV6N5zccZqLZblvl3qbfL0unkne6OCCRF5RzWsje9WqiovmtVe7U4i1aPFh3r2uCOCp1BtFz8tvT11mP0fU7+axsZypMnf14ZupW4TVO564aWZxap7hcqamhqLBd+qnSNIIGRN+Hnajmu6ujqVsiNRFVV6+6IkC714b+9exVTqWq0HutQrfR9FXUdUxyfVHRTO/yXuB5s+8SfebqFRS2yv1lrLRRyorXRWKjgtz+/rxNCxJk/wCcjVW11bcqya4XGsnqqqpess088ivkkeq8q5zl7qqr7qScx7wyt7WRTNjj0VqLfGv4prhdqGna1Pujputf6NVSSGkfgn53camGu1v1UtVlouzpKDHY31lU9PdizStZHE77o2VAK6sHwTMNS8pt+E4FjldfL5dJUhpKKjjV8kjvdfo1qJ3c5yo1qIqqqIiqXnbAdh9m2n4vJlOWupbpqTfqdI7jVxfPDbYFVHfCU7lTunKIsj/23NRE+Vqc7l0B2t6I7Z7I+0aTYZBb56ljWVt0nd59fW8f72d3zKnPfob0sRfRqG2AAAAAAD52Q47YMtstZjeU2Whu9puESwVdDXU7Z4J419WvY9Fa5PsqEH8k8HzbrX6o2bO8Wu13stipbnHXXTFpUSroqyJrupaeJ7lSWFjlREd1Ok+VVRvT2VJ4gDHNQcop9PtO8lzV8LPIxqy1l0WPjhvRTwPk6fsnDODmGvV4uWRXivyC81b6q4XOplrKueReXSzSPV73r91cqr/U6l6qlpq6mmoq2niqKeojdFNDKxHskY5OHNc1eyoqKqKi+pELVnwqNouqNwnvFDjN1wivqHrJK/GKxtPA9y//AKeVkkLE+0bGIBQyC4hPBH0Y89HLrJmqw892JT0nVx/e6OP9DP8ACvB72i4vPFU5A3MMtcxeXRXS8JDC5f5UscLuPt1KBSjiGGZdqBf6XFcHxm53+8VrumCht1K+omk+qoxiKvCe6+iJ3Utg2NeFRFglxt2re5mmo6+90rmVVrxVj2zU1FIndslY5OWzSNXhUjaqxoqcqr+eGz9000a0p0btK2XS3T6xYxSOREkS3UbIpJuPRZZOOuVfu9yr9zMgAAAGttymdz6ZbfdRs+o5/JrLJjNxqqN/PHFUkD0g/wDWKw2SetcrbbrxQVFqu9BTV1FVxuhqKapibLFNG5OHMexyKjmqnZUVOFA5YCfHg86HSZ9uCrdWrpQq+0aeULpIJHN5Y651LXRQt79l6YvPf/C5I190Jxau+E3tO1MqJ7pj1mu2BXGblyux6qRtKr/qtNM17Gt/hi8tDdm1bbLh21HSuPTLEa+ouayVs9xr7lUxNjmrKiRURHOa3siNjZGxE+jOfVVA3EAABgmu2lds1u0dy/Si7dDYcltU1FHK9OUgqFTqgm4+scrY3p92mdgDlkvllumN3u4Y7e6N9JcbVVS0VZTyJ80M8T1Y9i/dHNVP6Gytq2tFVt93AYZqpHNI2jtNxYy6MZyqy2+XmKpbx7r5T3qifvI1fYkf4uGgH6LNxDdTbNReVYdSoXXFVY3hkdzi6W1bf5v6opuV9XSv+hBkDqjpaqmraaGto5456eojbLFLG5HNexyctcip2VFRUVFPKRJ8MDXH9M21Sw0FyrPOvmCPXGa/qd87ooWotLJ9eFp3Rt5X1dG8lsAAAA07vId07TtYF/8AQm8J/nSSG4jUO8CldWbUtYYWeqYNe5P+Sild/wCEDm1LWfAzqOqk1npFX8EmPyIn95Lgn/hQqmLQvA4rWx5Fq9bufmnorLOifZklWn/zEAtmAAAA/iWWOCN800jY442q573LwjUTuqqq+iAf2YLrDrfpZoJiUua6r5jQ2G2s5bF5zuqaqkROfLgiby+V/wDC1F4TuvCIqkNt2/izacaU/G4RoEyiznK4+qGW6q9XWegf6dntVFqnp9I1Rn8aqitKi9VtYdS9b8tqM31TzCvyC7z8oktS/wCSFnPKRwxt4ZFGnsxiInqvHKqBMbdf4seq+rdRUYroW+v0+xRr+PjopUbea5qL2V0rF4pmr2+SJVd68yKi9JOzw3t6VTum07rMbzueFNQcPZE25SMajEudK/lI6xrE4RHcorZEanCO6XJwkiNSizHsdv2W3uixrF7NW3a7XKZtPR0VFA6aeeRfRrGNRVcv8i6zw39gN22yxVGrWp9xd+fl9ty0CWqln5p7XSPeyR0Urmr0zTK6OPnjljOnhquX5gJ2AAARA8R/ePDti0qXGsQuDE1EzGGSntCMVFfbqb8Mtc5PZW89MfPrIvPdGOQkVrNq5h2hWmd+1Uzut+HtNiplne1qp5lRKvyxwRovrJI9Wsan1d34TlTnO181uzLcRqrfNV84qOquu836mma5VioaVvaKmi59GMbwn1Vepy93KqhgE001RM+oqJXyyyuV73vcrnOcq8qqqvdVVfckPsU2sV+6rXCgxisgmZiNj6Lnk1UzlvTSNd8tO1yekkzk6E78o3renPQqGgrHZLvk16oMcsFunr7ndKmKjo6WBnVJPPI5Gsjanu5zlRET7nQ5sm2uWjanonb8L6IJ8mufTcclro+/n1rmp+ra71WKJP1bPZeHO4RXqBva3W6gs9vpbTaqOGkoqKFlNTU8LEZHDExqNYxrU7I1ERERE9EQ9kAAAAAAAAAAAAAAAAAAAAAAAAAAAAAAAAAAAAMd1EwHGNU8GvmnWaW9tbZMhopKCthXsqsenHU1f2XtXhzXerXNRU7oc4W4rQzKNuWsGQaTZWxz5rTUKtHV9HSyuon/ADQVDPs9nHKIq9Lkc1e7VOl8hf4nG0JNxWki53htr87PsGgkqaJsTOZLlQfino+3dzk4WSNO/wAyOan9oqgUTtc5rkc1VRUXlFT1RS+7w2d2SbldFIrLlNxSbO8IZFbrz5jv1lbBwqU9b91e1qtev+8Y5eyOaUI+ht7anuJyLa/rTZNUrGktRRwOWkvNAx3CV9ukVPOh+nV2R7FXsj2MVeyKih0lA+JhWZY3qJiNozrD7pFcbLfaOKuoaqNe0kUjUVF49UVOeFavdFRUXhUU+2AAAAA0xuV3baM7WMa/LWpN/R1zqY3OttholbJcK9U/cj5TpZz2WR6tYnpyq8Iobcu13tVgtlVe75c6W3W+hidPVVdVM2KGCJqcue97lRrWondVVeEKrt63i0yVSV+mO1WtfFEvVT12ZujVr3ezm0DHJy1Pbz3Jz69CJ8shETdnvu1l3X3OShvlauP4ZDL10WM0EzvITheWvqH9lqJU7fM5Eai/ha3leY3Aeaurq251s9yuVZPV1dVK6aeonkWSSWRy8ue5zuVc5VVVVV7qqkx/Cjrdarfujt8ml1kqblYKiD4XMkc5WUkNtevaWR69klY9EdGn4nK1zU+Vz1TBtnmxbVLdrf21VuifYMHopkZc8kqYVWNFT8UNM1ePPm49kVGt5RXKnLUdehoToJpntywGk060vsTaC3wL5lRUSKj6qunVER09RJwivkXj7IiIjWo1qIiBsQAAAAAAAAAAAAAAAAAAAAAAAAAAAAAAAAAAAAAAAAAAR037bcm7ltud+xO20aTZNZU/LmOqifM6tha79Sn+LGskX06ntcv4TnjkjkikdFKxzHsVWua5OFRU9UVPY6pysHd54TOX6r66Vmouht+xey2bKXurrzR3WWaFKOuVf1skKRRP62yqqv6e3D1f3RqpwGk/Br1d/M7cPeNLa6q6KHP7Q5IGKvZ1fR9U0f8A6lar+a9JdUQv2geGPpftmvtJqLk19mzbOKRHLSVktOlPRW5zm8K6CDqcrpOFcnmPcvZeWtYpNAAAABr7cRRflLb/AKm27jn4rDr1Dx9eqilT/wCJsE+BqDa33vAslssTep9wtFZStT6q+F7UT/UDl2LHvBHuHla1ahWrq/6zi8dRx9fLq42//NK4Sd3g03xtq3ZXK2vd2vOHV9I1F93tqKWb/wBkTv8AUC7oHws2zrDdN8arMxz3JrdYLLQM66iur52xRM+icr6uX0Rqcqq9kRVKst2PjCXa7/GYRtZopLZRL1Qy5bcIE+JlT0VaSnenESL7SSor+F7MYqIoE+tym8jQ3a1Z1qdRclbPe5ovMoset3TNcar6L5fKJExeF/WSK1vZURVXsU4brvET1x3PSVWPfGriGDSOVrcetk7v+ks9vi5+zqhf4eGx9k+TlOSMl9v18yi8VeQ5LeK263SvlWerra2d0088i+rnvequcv3VTwUNBXXStgttso56urqpGwwU8EaySSyOXhrGtbyrnKqoiIndVA8BufbTtJ1k3UZOll04sLmWumkRtzv1Y10dvoG+q9cnHzv4XtGzl6+vCJy5JlbP/CJv2T/BZ/uj+Islpd0zU+J08nRXVLfVPi5G/wDV2qnrG1fM7qirGqcLa9h+G4pp/jlDiGEY7b7HZbbGkVLQ0MDYYYm/ZrfdV5VVXuqqqqqqoGkdp2yDR7abZGuxihS9ZbVQ+Xccmrom/FTc/ijhb3Snh5/YavK8J1ueqIpIcAAAQN8U/eP+hHTv9C2A3Xy84zWkc2qmhfxJarU7lr5OU7tkl4dGz3REkdyio1VCFXihbx/0/wCpn6K8Euvm4DhFU+NJYX8x3W5pyySp5Ts6NnLo417oqLI9FVHpxB4G99mO1++brNarbglO2enx6h6bhkdwjTj4Wga5OprXeiSyL+rYnfu5XcKjXATX8ITaB58rt1ef2v8AVxLLR4dTzM7Od3ZPX8L9PmijX6+a7jsxS1o+djuPWTErBbsWxq2QW602ilioqGkgb0xwQRtRrGNT6I1EQ+iAAAAAAAAAAAAAAAAAAAAAAAAAAAAAAAAAAAAAAAABSH4qO0H9B+p/6YsItflYTndU+SaOFnEdtuy8vlh4Ts1kqI6VieypK1ERGt5gmdOGtekGI68aX3/SnN6XzbXfqVYVka1Fkppk+aKePn0fG9GvT25bwvKKqHORrdo5mOgeqF+0qzmk8q52OpWJJWtVIqqBe8VREq+rJGK1ye6c8LwqKiBPbwid3/5rZAu13Prp02i+zvqMUnmf8tNXO+aSj5X0bN3cxO361HInKy9reTleoK+ttddT3O2Vc1LWUcrJ6eeF6skikYqOa9rk7tcioioqd0VDoK2D7sKLdXopS3e6VMLc1xtI7dk1M3hqum6f1dU1qejJmtV3pwj2yNTs3lQkuerdbra7Hbam83u5UtvoKKJ09TVVUzYoYY2py573uVGtaid1VV4QjZui8QjQPbFDVWa43huU5nEitjxu0TNfLG/2Spl7spk9OUdzJwvKMcU77n98euu6iukpsyviWrFmS+ZS41a3Ojoo+F+V0vfqqJE7fNIqoi89KMReAJ17vPF7tFi+NwLazHDdLgnVDPl1XD1UsDvRfg4XJ+ucntJInR27NkRUUqpy7Mcqz/Iq3Ls2yG4Xy9XGRZaqurp3TTSu+7nLzwidkT0RERE4RD45srQjbpq7uRy5mH6UYpPc5mq1aytfzHRUEar/AGlRMqdLE7LwndzuFRrXL2A1xDDNUTMp6eJ8ssrkYxjGq5znKvCIiJ3VVX2LKNlXhN3vMfgNTNz9JV2Wxu6Z6PE0c6KurW+qLVuTh1PGv+7TiVeV5WPj5ph7PfDj0k2wQ0mWXxkOY6hNajnXmrgTyKB6p3bRRLz5fHp5ruZF78KxHKwl0B83HMcx/ELHRYxitlorRaLbC2no6GigbDBBGno1jGoiNT+R9IAAAAAAAAAAAAAAAAAAAAAAAAAAAAAAAAAAAAAAAAAAAAAAAAAAAAABozcrvL0M2tWl02oeSpUX2WLzKLHbcrZrjU8/hVY+USJi/wC8kVrey8Kq9gOejPsffied5Hi0jOh9mu9Zb3N/dWGZzFT/ALpnG2HX667ZNYrZq/ZrFBeam10ldTtoZ53RRyunppImK9zUVelr3seqJwrkZxy3nqTF9X86ptT9Vsx1Jo7L+SIsqvtdem0Hned8N8TO+VY+vpb1cK9U56U/khiIG0te9zOs25XJfzj1Yy+ouKRPc6itsPMNBQNX9mCBF6W9uEVy8vciJ1OcatPr4lh+VZ7kNFiWFY9cL5ebjIkVLQ0FO6aaV32a1FXhE7qvoiIqrwiFpu0jwf7fbfgs73U1DK6qTpmhxChqOYI19USsqGL+sX6xxL09u73oqtAgltj2Xa4bqbu2PArB8Fj0Mvl12R3FroqCn4/E1ruOZpET/s40VU5Tq6UXqLm9qWwbRHarSQ3WzW/8480dH0VOS3OJqztVU4c2mj7tpmLyqcN5eqLw57k4JEWOxWXGbRSY/jloorXbKCJsFLRUcDYYII09GMY1Ea1E+iIe8AAAAA/HOaxqve5GtanKqq8IiAa43Da6Yjty0kvurGYyo6mtUPTSUjXo2SvrH9oaaP8Aie71XhelqOcvZqnOZqxqjl+tGol91Pzu4LWXrIKt1VUOTlGRp6MijReemNjEaxrfZrUQkz4lm8B25PVtcRw65rLp/hM0lLbVjf8Aq7jWfhmrV47OavHRGvf5EVyceY5CHIHuWazXXIrvQ2CxW+evuVyqY6SjpYGK+SeaRyNZGxqd1c5yoiJ9VOhXY5tVtW1HRWixWaKCbLb10XHJq6Ph3mVat7QMd7xQoqsb7KvW/hFeqELPCH2eefL/ALVeoVr/AFcSy0uHU07Oznd2TV/C/T5oo/v5juOzHFrQAAAAAAAAAAAAAAAAAAAAAAAAAAAAAAAAAAAAAAAAAAACFPib7N03FaYfpFwe1pLqDhNO+WmZEzmS6W9OXy0nbu57e8kSd/m62on6zlJrADlXVFRVRU4VPVDKcD1T1H0ulus+nObXjG5b3QuttfLbap0D56ZXNcrFc1UVO7U7oqL6pzwqos4/FU2Tu0qyufcRpralbh+TVfN9pIGfJablI7+0RE/DDO5eU9myKreyPY0rzA/ZJHyvdLK9z3vVXOc5eVVV9VVT+6enqKuoipKSCSaeZ7Y4oo2q573qvCNaid1VVXhEQkttq8PTcTuVdS3i047+bGJTqjlyG+MdDBJH9aePjzKjtzwrU6OU4V7S3ja1sC0I2t08F2slp/OTMWs4myW7RNfUNcqfMlNH3ZTN9fw8vVF4c9wFfm0TwlM81KdR5zuLWtw3GXdM0NjYiMu1c314kRUX4Ri+/UiyL3TpZyji3HTbTDT/AEgxOkwfTTE7fj1kok/V0tHF0o53Ccve5eXSPXhOXvVXL7qplAAAAAAAAAAAAAAAAAAAAAAAAAAAAAAAAAAAAAAAAAAAAAAAAAAAAAAfjnNY1XvcjWtTlVVeERAP0x3P9RMG0sxirzTUXKrbj1kok5mrK+dI2Ivs1vPd7144RjUVzl7IiqQ33X+KzpFop8ZiGkKUuoOYxdUTpIJv/sigkTt+tnav69yL+xEvHZUV7FTgqI1w3Eav7i8oXKtWcyq7xOxXfCUnPl0dExf2IIG/JGnoiqidTuEVyuXuBO3df4weQZD8ZhW16hlslud1Qy5VcIU+Nnb6KtLA7lsDV9nv5fwvZsbk5K2L1e7zkl2q79kV2rLpc66VZ6qsrJ3TTzyL6ve96q5zl+qryekb7217JNfN0VbHNgeMLQ44knRU5HdUdBb4uF4cjHcK6d6fuRo5UXjq6U7gaERFVURE5VSbO1Xwsta9dvg8r1HZPp7hk3TK2atp1/KVdH6/qKZ3CsaqekkvSnCo5rZELG9rHhtaD7bPhMkrqNM3zaDpf+W7tTt8ulkT3pKbuyHv6PVXyJ34eiLwS0A1PoBtc0U2z2D8h6U4fBQzzRoytu1RxNcK7j3mnVOpU579DeliL+FqG2AAAAAAAAV/eK7vC/RHp/8AoEwO6eXl+a0jvypPC/57baXctd3T8Mk/DmJ7oxJF7KrFJf6+62Ylt50myDVjMpf+h2WnV0NM16Nkrap3yw08f8T3qic+ycuXs1VOcXVfU/LdZtRb/qfnFd8VeshrH1dQ5OeiNF7MiYi+kbGI1jU9mtRAMTN/bJ9rN63Xa00GGtZPT4xa+i4ZLcI04+Hokd/Ztd6JLKqdDPdOXO4VGONJ41jd9zHIbbimMWue5Xe8VUVFQ0kDeqSeeRyNYxqfVVVEOhzZdtbsW1HRegwinSCpyO4dNwyS4xpz8VXOb3Y13r5USfIxO3ZFdwjnuA3XYLDZsWsdvxnHbbBb7VaqWKioqSBvTHBBG1GsY1PZEaiIn8j3wAANS7gd02ie2WwtvWq+XxUVRUMc+htNMnn3Cu4/3UCLzxz263K1iL6uQrH1u8ZzWHJ6iotmhuH2vC7avLYrjcWNuFyd9Ho136iP+6rJP7wFyQObfLN4e6jNqmWqyHcFnknnd3w0t7no6df5QwOZGn9Gnw7duO3C2ioSqtWu+odHMn7cGT1rF/zSTuB0yAoM0v8AFI3iabVEKVuoEGY2+PhHUWSUTKnqT/HZ0T8/zkVPspYRtr8WrQ3V+ppcY1UpV02yKfpjZNW1CS2mok9OG1PDVhVfXiVrWp2TrcoE6wfxDNFURMnglZJFI1HsexyK1zVTlFRU9UVD+wAAAAAAAAAAAAAAAAAAAAAAAAAAAAAAAAAAA+PmOIY3n+LXXCswtEF0st7pJKKupJ05ZNC9OHJ9UX3RU4VFRFRUVEUjrol4bW1DRCojutBgf51XmJ/XHcsoe2vfGvPKdEPS2Biovo5I+tO3zEogB+Na1qI1qIiInCInsh+gAAAAAAAAAAAAAAAAAAAAAAAAAAAAAAAAAAAAAAAAAAAAAAAAAAAAAAApQ8TndvuBuetWY7epr9JjmGWKeOnS321HQOucEkLJWyVUnPVK1zZEXoRUj445aqpyXXkE/Ea8Pq57nZ7VqfpK6302d29kdurqerl8mG50XX8j1k9GyQ9Tl5VPmYqt9WsRQpDNmaH7bdadxd9/IWkuC1958t6Mqq7p8qho+feaofxGzt3RvPUvHytVexZ/t58GvTTEVpb/ALg8olzO5s4etmtrn0trjd+6+TtPOnPv+qT2Vqlg+LYni+D2KkxfDcet1jtFCzy6aht9Myngib9GsYiIn+XcCBu2DwhdLdNnUmV6+XCDPsgj6ZG2qNjmWamf9HNdw+q4X99GsVF4WNfUsAoKChtVFBbbXRQUdHSxthgp4I0jjijanDWta1ERqInZETsh7AAAAAAAAAAAEPfEz3V/7Omhs2OYvcvJzfPGS2y1rG/iSjpeESpq047orWuRjF7Kj5GuTnoUCvfxSN3X6e9Wf0X4Zc/NwbAqiSBj4n8x3G5pyyap7dnMZ3ijXv28xyLxIQhBJ/YBtGrd1escNLeqWZmC4w6OvySpby1JWcr5VGxyej5laqKqcK1jZHIvKNRQmb4Ruzf8h2xm6jUS1cXC5RPgw+lnZ3gpnIrZK7hfR0icsjXt8nW7ukjVSzw8FBQUVroae2W2khpaOkiZBTwQsRkcUbERrWNanZrURERETsiIecAQ239+IDYdq9nXBsHSkvGpl0p0kgppPnp7RC78NRUIi93L+xF7/idw3hH7Z3i7mLJtV0Tuuo1YyCqvUypb8ft8juPjLhIi9CORO/lsRHSP44+Vioi8uQ538yzDJtQcquubZleKi63u9VT6yurJ3cvllevKr9ET2RE4REREREREQDzZ1nmZamZTX5tn2SV19vlzlWWqrayVXyPX2RPZrUTs1rURrUREREREQ+Ce/YLFc8mvNJYbPDHJV1sqRRpLMyGNvPq58kioyNiJyrnvVGtRFVVREVS0HZvts8P3TZ9vu+tWvml+e5+9zXtoZr/Tus1BJ24jja9yMqnov7cnLVXjpYip1KFeemW3bXTWVFl0v0oybIqdF6XVdHQPWla7njh07kSNF+yu+pt7/wAmLvl+F+L/AEFT9HHPT+X7V1/8nxPV/Tgv9tq251vpltC0y0KxN+GWm6fK8vj5ejp7dPHHHHbg9kDmY1N2+a36MuRdUtK8lxuFzkYyqraB7aWRy/ssnRFicv2RymvjqfuNtt14oJ7Xd6CmrqKqjWKemqYmyxSsXsrXMcio5F90VOCtDfN4VOO3Sz3HVba9ZEtt3pGOqbhiMH/VqyNEVXOom/8AZyp/uU+RydmI1URrwjBsX8RnNttd2o8D1Gra/I9Mp3NhWme9ZamyIq/2tKq91jT1dBzwvq3pdz1Xi43klhzDH7dlWL3Wmudou1NHWUNZTP64p4XtRzHtX3RUVDlqkjfE90UrHMexVa5rk4VFT1RULOfB33UVttySq2t5hcpZrfdWzXLFFleqpTVLGukqaVvPoyRiOlRE4RHRye8gFtwAAAAAAAAAAAAAAAAAAAAAAAAAAAAAAAAAAAAAAAAAAAAAAAAAAAAAAAAAAAAAAAAAAAAAAAAAAAAAAAAAAAAAAAAAAAAAAAAAAAAAAAAAAAAD+XvZEx0kj2sYxFc5zl4RET1VVOcneduFuG5fcDkmojqmV1limW2Y/A5e0FthcqRcJ7K9VdK5P3pXe3B0cFce8Pwk7PqnkddqVt6vNrxe9XGR1RcLDXtey3VMzl5fLDJG1zqdyryqs6HMVV7eX35CpfTfTvLdWc6sunGC2p9xvt/q2UdHA3snUvdXuX9ljWo5znL2a1rlXsh0UbWtueKbXtHrRpfjPRUVEKfFXe49HS+4170TzZl+idkaxv7LGMTlVRVXQXh07Bn7W7VX5/qbHQ1mo14a+kb8PIk0NqoUd/ZxP4+aSTpRz3p6J0sTjhyumyAAPBW1lPb6Oevq39EFNE6aV37rGoqqv+SAUd+LVrxU6pblZ9O7dWrJYNNoPyXFG1fkfcJEa+rk/vIvlwr/AIC/XvCI+1nGVV+dZpf82ur3PrcgulVdKlzl5VZZ5XSOVf6uU+KAAAEp9km+3UHavl9FaLpc6286bV1Q1l2skj1kSlY5fmqaRFX9XK3nqVqcNkROHd+lzb9bNeLXkVnob/Y66Gtt1zpoqyjqYXdUc8EjUex7V90c1UVF+inLGX6+FtmVyzHZdhiXWR0s1imrrMyR3q6GGoesSf8ADG9jE+zEAlmAAKdfFR2WXuw6tW3V/RzC7ldKLUKpfDc7baKF9Q+C8InUr2xxtVeJ2o5/CIvzxyqq/MiHsbHPDH3A23VHE9aNUqldPrdjdfBd6eiSVkt1q3xuRzYnRp1Mhjd3a/zF6+lVb0d+UtyyC+2zF7DcsmvVQsFutFHNXVcqMV6xwxMV73dLUVV4a1V4ROVIEZN40+3K13F9HjeAZ3e6eNytWrWnpqaORP3mNfMr1T+81q/YCwcGqdtO47CN0umceqOBW+7UNvWtmt0tNdIo2TxTxI1XIqRve1U4e1UXq7ovonobWAAAAAAAAAAAAAAAAAAAAAAAAAAAAAAAAAAAAAAAAAAAAAAAAAAAAAAAAAAAAAAAAAAAAAAAAAAAAAAAAAAAAAAAAAAAAAAAAAAAAAAAAAAAAAAAAAGN6lsnl04yqOm6vOfZK5sfT69SwP44+/Jkh/Mkcc0boZWI9j2q1zVTlFRfVFA5WTI8RwO/Zrb8ouFihSZMTsq36tjTu9aVtTBA9zU9+lalr3fRjXr6Ip7msOn9bpTqtl+m1fHI2XGb1WWxFend7IpXNY/7o5qNci+6ORTc3h1ag2DT/dliLMtZTyWDKm1OLXKOpajoZI66JYo2yI75VYsywo5F7dKryBGoFku7TwiM+x+/V2Y7YYY8hx6qkdMuNz1TIq+3891ZC+VUZPEnfjlySInDeJF5csSqHY9u9uF0Sz0+3TOmTq7oR89pkhg5/wAaTiNE+/VwBo9EVVRETlV9EOivYjo9ctDdq2CYLfqR9NeXUb7pc4Xpw+KpqpHTrE5PZ0bZGxr92EStjvhS1mnmTWzV3cm+31V2tkjKu1YvTSNqIaaoavLJauVOWSOYqctjZ1M5RFVzvwlmQAAAaj3dZPT4ftc1Xv8AUSIzycQukMSr/v5qZ8USf1kkYn9TmzLn/GT1vpMQ0MtOilvrG/lbPK+Ooq4mu7sttI9siq7j06p0gROfVGSfRSmAC6nwVnzLtbyhsnV0Nz2t8tV9OPyfQcon9f8A2k/yH/hSYLUYXszxqtq4XxT5TcK++uY5OFRj5fJiX+ToqeNyfZyEwAAAAAAAAAAAAAAAAAAAAAAAAAAAAAAAAAAAAAAAAAAAAAAAAAAAAAAAAAAAAAAAAAAAAAAAAAAAAAAAAAAAAAAAAAAAAAAAAAAAAAAAAAAAAAAAAAAAAqB8Y/bRWY/nNu3L41b3PtOSMiteRLG3lKe4RM6YJnfRssLGs59EdD3Xl6c1rxySQyNlie5j2KjmuavCtVPRUX2U6hNRNPsS1Vwm8aeZ3Z4rpYr7SupK2mk/aYvdHNX1a9rkRzXJ3a5qKnCohz+7yNm+e7SM+fabrFPdMQucrnWC/ti4jqY+6+TLx2ZUNT8TPfjqb8q9gtW8O7fVYdyeD0Wnuc3eGl1PsFKkVVFM9GreoI04Ssh5/E/hP1rE7o7lyIjXJxM45YrPeLvj10pb5YbpV2240MrZ6WrpJnQzQSNXlr2PaqOa5F9FReSzvZj4r+pd7y3EtFdacTTLKi/XKksdDkFvc2CuSWeVsUbqmJeI5kRXJ1Pasao1FVUevKqFsQPi5nmeL6eYtcs2zS8wWmx2eBamurZkVWQRoqIrl6UVfVU9EX1NBXfxJdktmp1qKjXi2Toicoykt1dUvX7cRwr/AKgSXMQ1Z1YwXRHAbtqVqNe47ZZLRF5ksju75Xr2ZDE31fI9eGtanqq/TlSDmq3jR6IY9ST0ukmCZHl1yTlIp69rbbQ/Z3Uqvmdx69Plt5/eT2rK3H7sNZ90uRx3vVHIkfR0bnLbrNRNWG30CL6+XFyqq5U7LI9XPVOE6uERED1Nz24PKNzmsl71WyZrqdlY5Ka2UHX1Nt9BGqpDA1fdURVc5U46nve7hOeDHNGdLMi1t1SxnSrFYXPuOSXCOja9GK5II1XmWdyJ+xHGj5HfwsUwxEVV4Qun8K/ZVW6K4pJrpqbaJKXNcqpPJttBUs4ktNscqO+dq92zTKjXORe7WI1q8K57QJz4XiVmwHD7Hg2OQeRaset1Na6KNfVsEEbY2Iv1XpanKn2gax1z3KaL7cbC2/at5vR2dJ2uWjoW8zVtYqe0MDOXvTnhFdwjW8p1OQDZwKktZPGvyutnnt2g2llDbKTu1lzyV61FQ9PZyU8LmsjX+ckifYi3k3iRb1Moqn1FVrlc6FruzYbZR0tGxifRPKiRV/mqqv3A6EQc8Fn8Q3ejYqhlTRbgMhlcz0Ssjp6ti/zbNG5F/qhIDSfxnde8ZqIKXVjDsdzW3N4SWemYtsr1+rutnVCvHr0+UnP1QC58Eedtm+7b1uebDbMMyd1qydzFfJjl5RtPW9k5d5XdWTondf1bnKiJy5GkhgAAAAAAAAAAAAAAAAAAAAAAAAAAAAAAAAAAAAAAAAAAAAAAAAAAAAAAAAAAAAAAAAAAAAAAAAAAAAAAAAAAAAAAAAAAAAAAAAAAAAAAAAAAAGNai6b4Nq1iFwwLUbGqO+2G5s6KmjqmctXju1zVThzHtXu17VRzVRFRUUyUAU8bkfBw1Hxu4VWQbb7zDldlkc6RljuVRHTXGmT1RjJX9MM6J9XLG70Thy8qefw09imrlg3GJqVrZp3d8Yt2BwOqaCO506xpXXGVro4vLX8MjI2+ZIrmqvD0i+pcAAIgeK5l64tstyqhjcrJcjr7baI3IvpzUsnen9WU70/qULHTvqppBprrdirsJ1VxGiyKyrO2qSlqle1GTNa5rZGOYrXMciPeiOaqLw5fqRXvXhA7ObpUunobdl9nYr+pIaK+q5iJ+6izskdx/Xn7gUYGSaf6a59qtklPiOm+IXTIrxUqiMpbfTulcifvPVOzGJ7vcqNRO6qiF4+I+FNsuxWqbWVen9zyGRnCsS73qoexF+qsidG138nIqfYk3gunOA6Y2RmOadYZZcatjOF+FtdFHTRud+85GInU76uXlV91AgTsc8K226U3G36sbiUorzllHIyptdggek1DbJU7tlmd6TzNX0ROY2KnKK9elzbGARr35btaHado3LfLa+nnzTIVkt+NUcqI5vnIieZUvb7xwtc1yp7udG1eEdyga839eIjYdsVHLpvpylJetTKyBHKyTiSmskb05bLUIi/NKqLyyH6Kj38N6UfSbnmf5pqflNdm2oOS19+vlyk8ypra2VXyPX2ans1qejWNRGtThERETg+ff79espvdfkuR3SpuV1ulRJV1tZUyK+WeZ7lc973L3VVVVU+hgeB5dqblluwfBbHUXe9XWXyqalh4RV7cuc5yqjWMa1Fc57lRrWoqqqIiqB8A+9iWn+eZ/VPoMEwm/wCSVMfHXDaLbNWPbz6ctia5ULWNo/hz7V8Qkoa7XDUrDdRM7c5r/wA36a+QPt1G/wBo/Ja9H1TkXlFV6dC+nlrx1LZHY7BYcYtsNlxqyUFpt9OnEVJQ0zIIY0+jWMRGp/RAOb+q2j7p6OlWsqduGpjIUTlzvzVrV6U+qokfKJ/M1ld7NeMfr5bVfrTWW2thXiWmq4HQysX+JjkRU/qh1OGE6qaJ6T622J+Oaq4DZ8konNVrPjKdFmg5/ahmTiSJ38THNX7gcyVHWVduq4a+31U1NVU0jZYZoXqySJ7V5a5rk7tVFRFRU7oWpbAfFFr7jcbborucvkci1HTS2bL6l/S5ZPRkFe5ey8+iTrwvPHmc8q9NL77vDNvu3aiq9VdIamuyHT5j+qupp08yusiKv4pFaiJLBz28zhHN5RHov41ggB1T+vdD9IC+E/u4uGtGnVXorntz+JyvBKaJ1BUyv5muFo5RjFdz3c+F3TG53u18XPK9SrPoAAAAAAAAAAAAAAAAAAAAAAAAAAAAAAAAAAAAAAAAAAAAAAAAAAAAAAAAAAAAAAAAAAAAAAAAAAAAAAAAAAAAAAAAAAAAAAAAAAAAAAAAAAAAAAAAAAABz6eIvr9Va97n8lq6WtdLjuJzPxyyRo7lnlU71bNMnsvmzeY9HeqtWNF/Chejrtm8umuime6g07+mfHMbuVzg49VmipnvjRPur0an9TmSe98j3SSPc57lVznOXlVVfVVUD8PZp7lX0lNPSUlZNBDVt6Khkb1akzeUVGv4/E3lEXhe3KIvqetwvHVx2TsABN7Yx4j+oOhGUWzBNWsjr8j01rZWU0i1sjqipsaKvCTQPXl6xN7dUPdOlFViI7s6EIA6o6Wqpq2mhraOojnp6iNssUsbkcyRjk5a5qp2VFRUVFQ8pF3wz8+uWoOzPAqy7zPlq7LFU2J0jnKquipZ3xw+v0hSJv8AwkogPXr6ChutBU2u50cNXR1kL6eop540fHNE9Fa5j2r2c1UVUVF7KinPpv8Atrv+y3r3XY9ZKeRMQyJi3jHHuVXeXTucqPplcvq6F/Le6qqsWNy93HQmYNqZozo9qs+1XLVnAbBkjcbfLUUDrxTMmipVejfMXpf8qtVGM5RyKnyp9AKUPC/w3Wmo3S4jnmnWG3KusNsqJafIbgrFiooaCaN0cyPldw1z0R6PbGiq5zmN4ThFVL6DVkG4fa/jMkOJ0uuOl1qdSp5ENtjyW3weSidkY2JJE6f5IhsuguFBdaOG42utp6ykqGo+GenkbJHI1fRWuaqoqfdAPYAAAAAAAAAAAAAAAAAAAAAAAAAAAAAAAAAAAAAAAAAAAAAAAAAAAAAAAAAAAAAAAAAAAAAAAAAAAAAAAAAAAAAAAAAAAAAAAAAAAAAAAAAAAAAAAAAAGgt+6zps41Z+GRyv/N2bnp/d6m9X/d5OdQ6cNcsFfqfoxnWnULEdNkmO3C2QcrxxNLTvZGvP2erV/ocyU8M1NNJT1ET4pYnKx7Ht4c1yLwqKi+iooGy8O0luGXaBaiao2mN1RJg15sDK6JicrDQ1jK5jpl+yTR0zf+NVX0NYk9/CEybEazVvOdDM5oaWttGpmMPplo6lOqOskplc50Cp78wS1LufVPLXg9Ldj4Vesukl9rsi0Sstfn2EzSOkp4KJvnXagavfy5YGp1TInokkSO545c1nuEFQZzb9CNb7rdEsdt0czequCu6PhYsfq3So76K1I+ULC9jPhU5VDk9s1Z3PWqG30FslZV27EpHsmmqpmryx9b08tZEi8L5PKucvZ6NRFa8JueH7pVc9HdpGAYpfaWSmu1VRyXiuhkb0vikrJXztjcns5sckbFRe6K1SRAAAjB4l+SQYzsn1JmlkRslwpqO2wt54V7p62Bion8mK938mqSfKvfGu1qpabH8K0AtlWjqutqVye7RtXvHBGj4aVrvs97p3cf8Ammr9AKmToE8MSeeo2M6YyVH4kiurE/ututW1v/dRDn7OjfY9hdRgG0jSvGquBYKhMdp6+aJU4VklXzUuav0VFmVF+/IG8QAAAAAAAAAAAAAAAAAAAAAAAAAAAAAAAAAAAAAAAAAAAAAAAAAAAAAAAAAAAAAAAAAAAAAAAAAAAAAAAAAAAAAAAAAAAAAAAAAAAAAAAAAAAAAAAAAAKFPE7221eg+4y55JareseJ6hSy3y1yMbxHFUuci1lN9EVsrutETsjJY0T0UvrNS7n9uOF7o9JrlphmCfDySqlVarmyNHy22uYi+XOxF9U7q1zeU6mOcnKKqKgc6Gn+d5Npjm1j1Cw24LRXvHq6K4UUyJyjZI3IqI5P2mr3a5q9laqovZTof2obpsB3W6ZUubYpUxU13pmMhv1ldIiz2yrVO7VT1dE5UVY5OOHN+jkc1vP9rfohqHt81DuOmupdlfQXShd1RStRVgradVVGVED+E643cLwvqiorXIjmqienpPq/qNofmdHn+l+U1livNGvCSwO5ZNGqoropY15bLGvCcscip2RfVEUDp3BC/YJ4g9Tu6rrjgeVafOsuVWK2flKqr7fJ12ypjSSONeGvXzIZFdIioxVkRUa5etOOCVOa6n6a6aton6i6hY1izbk98dE69XWChSpcxEVzY1mc1HqiObyic8coBk4NRXnd5tXsEDqi5bi9OURqKvRDklJPJx9mRvc5f6IR21l8XrbHgFDPBpu+66iXlGqkMdFTSUVE2T6SVE7Wu4+8ccgEqdcda8E2+aa3fVDUO5NpbZa4/1cLVTzq2oVF8unhaq/NI9U4RPRE5cqo1qqnOhrprJlev2q2Q6s5lIn5Rv1UsqQMcqx0sDURsNPHz+xHG1rU9145XuqqZTua3Y6u7rMtZkepF2YygonPS1WSjRWUVuY716Gqqq568J1SOVXLwico1Eamm2MfK9scbHPe9Ua1rU5VVX0REA2ztT0OuO4nXvEdLaSnkfRXCuZPd5Wcp5FtiVH1L1X2Xy0Vrfq9zE9VQ6Saamp6Omio6SFkMEDGxxRsbw1jGpwjURPREROCFnhj7NKjbjpvNqFn9rSDUHNIGOnhkb+stVu7PjpF57tkcvEkqfVGNXvHys2AAAAAAAAAAAAAAAAAAAAAAAAAAAAAAAAAAAAAAAAAAAAAAAAAAAAAAAAAAAAAAAAAAAAAAAAAAAAAAAAAAAAAAAAAAAAAAAAAAAAAAAAAAAAAAAAAAAAAADUW5La5pNulwtcR1Msyunpke613el4ZXW2Vyd3RSKi/KvCdTHIrHcJynKIqVC67eFFud0quVRUYJZo9RseR6rBV2dUZWNZ7ebSPd1o7/DWRPunPBeuAISeFftVvu33R645nqDZai15jnk0c89DVRLHUW+gh6kp4ZGOTlkjlfJI5vZUR0bXIjmKhFTxts4W5avafadxzdUdhx+e6vai9myVlQsfC/fpo2r/JyfUuGI0blvD52/bo7+7M83gv8Aa8ndTx0q3e0XFWPdFHz0MdFKkkPCcr6MRV59QOe4Fu1Z4H+nb6tz6DXnI4aZfwxzWeCWRP5vR7UX/lQzXB/Bi20WCeGrzLLc1yp8aor6d9XDRUsqfRWxR+an9JUAptxDDMtz/IKXFcHxq5368VrumnobdTPnmkX3VGsRV4T3X0RO6lvewjwwKfR640Gse4KChueYQI2e02FitmprPL6pNK/u2aob26enlkapyivd0uZNnSnQvR/Q61Ps2k2ndlxmnlREnfRU6JPUcenmzO5klVPq9ymdgAAAAAAAAAAAAAAAAAAAAAAAAAAAAAAAAAAAAAAAAAAAAAAAAAAAAAAAAAAAAAAAAAAAAAAAAAAAAAAAAAAAAAAAAAAAAAAAAAAAAAAAAAAAAAAAAAAAAAAAAAAAAAAAAAAAAAAAAAAAAAAAAAAAAAAAAAAAAAAAAAAAAAAAAAAAAAAAAAAAAAAAAAAAAAAAAAAAAAAAAAAAAAAAAAAAAAAAAAAAAAAAAAAAAAAAAAAAAAAAAAAAAAAAAAAAAAAAAAAAAAAAAAAAAAAAAAAAAAAAAAAAAAAAAAAAAAAAAAAAAAAAAAAAAAAAAAAAAAAAAAAAAAAAAAAAAAAAAAAAAAAAAAAAAAAAAAAAAAAAAAAAAAAAAAAAAAAAAAAAAAAAAAAAAAAAAAAAAAAAAAAB/9k=;imageBorder=default;" vertex="1" parent="1">
          <mxGeometry x="247" y="270.25" width="130" height="69.75" as="geometry" />
        </mxCell>
        <mxCell id="9cJPVwpwHsh4F_o2YOtW-6" value="" style="shape=image;imageAspect=0;aspect=fixed;verticalLabelPosition=bottom;verticalAlign=top;image=data:image/svg+xml,PHN2ZyBpZD0ic3ZnNDE0NCIgdmVyc2lvbj0iMS4xIiB2aWV3Qm94PSIwIDAgNzAzLjk4NDg2IDIzMy4wMDA2MSIgaGVpZ2h0PSIyMzMuMDAwNjFtbSIgd2lkdGg9IjcwMy45ODQ4Nm1tIiB4bWxucz0iaHR0cDovL3d3dy53My5vcmcvMjAwMC9zdmciPiYjeGE7ICA8ZGVmcyBpZD0iZGVmczQxMzgiLz4mI3hhOyAgJiN4YTsgIDxtZXRhZGF0YSBpZD0ibWV0YWRhdGE0MTQxIj4mI3hhOyAgICAmI3hhOyAgICAgICYjeGE7ICAgICAgICBpbWFnZS9zdmcreG1sJiN4YTsgICAgICAgICYjeGE7ICAgICAgICAmI3hhOyAgICAgICYjeGE7ICAgICYjeGE7ICA8L21ldGFkYXRhPiYjeGE7ICA8ZyB0cmFuc2Zvcm09InRyYW5zbGF0ZSgzNjkuMDQzMjQsLTIxMC44Mjg5NykiIGlkPSJsYXllcjEiPiYjeGE7ICAgIDxyZWN0IHRyYW5zZm9ybT0ibWF0cml4KDAuMjYzNzg2NCwwLjk2NDU4MTEyLC0wLjk0NjQ1NTQ2LDAuMzIyODM0NDIsMCwwKSIgeT0iLTE1Mi4wMTY5NCIgeD0iNDU5LjU2NDI3IiBoZWlnaHQ9IjU3LjQ3MjYzNyIgd2lkdGg9Ijc1LjI1MjI3NCIgaWQ9InJlY3QxMC0wLTItOC00IiBzdHlsZT0ib3BhY2l0eTowLjczNTIwMDExO2ZpbGw6IzcyOWZjZjtzdHJva2Utd2lkdGg6MC4yODEyODc2NyIvPiYjeGE7ICAgIDxyZWN0IHk9IjIzMS4xMDI0OCIgeD0iLTM2OS4wNDMyNCIgaGVpZ2h0PSIxOTQuMTcyOTciIHdpZHRoPSI3MDMuOTg0ODYiIGlkPSJyZWN0MTIzIiBzdHlsZT0ib3BhY2l0eTowLjQ3NjYwMDU7ZmlsbDojMzQ2NWE0O3N0cm9rZS13aWR0aDowLjMzNTI2ODgzIi8+JiN4YTsgICAgPHJlY3QgdHJhbnNmb3JtPSJtYXRyaXgoLTAuNzA0NzcyMTYsMC43MDk0MzM3MiwtMC42NjM5OTQ1OSwtMC43NDc3MzczOCwwLDApIiB5PSItNDg4LjExNzc3IiB4PSI5Ni4yNjUzNSIgaGVpZ2h0PSI1MS4xNDE1ODIiIHdpZHRoPSI2Ni42ODUyNzIiIGlkPSJyZWN0MTAtOS01IiBzdHlsZT0ib3BhY2l0eTowLjczNTIwMDExO2ZpbGw6IzM0NjVhNDtzdHJva2Utd2lkdGg6MC4yNDk3ODI2OCIvPiYjeGE7ICAgIDxyZWN0IHRyYW5zZm9ybT0ibWF0cml4KDAuMjYzNzg2NCwwLjk2NDU4MTEyLC0wLjk0NjQ1NTQ2LDAuMzIyODM0NDIsMCwwKSIgeT0iLTIxMS4yOTk1NSIgeD0iNDM2LjM1ODYxIiBoZWlnaHQ9IjU3LjQ3MjYzNyIgd2lkdGg9Ijc1LjI1MjI3NCIgaWQ9InJlY3QxMC0wLTItOCIgc3R5bGU9Im9wYWNpdHk6MC43MzUyMDAxMTtmaWxsOiM3MjlmY2Y7c3Ryb2tlLXdpZHRoOjAuMjgxMjg3NjciLz4mI3hhOyAgICA8cmVjdCB0cmFuc2Zvcm09Im1hdHJpeCgwLjI2Mzc4NjQsMC45NjQ1ODExMiwtMC45NDY0NTU0NiwwLjMyMjgzNDQyLDAsMCkiIHk9Ii0xNTIuMDE2OTQiIHg9IjM4NC4zMTIwMSIgaGVpZ2h0PSI1Ny40NzI2MzciIHdpZHRoPSI3NS4yNTIyNzQiIGlkPSJyZWN0MTAtMC0yLTgtOSIgc3R5bGU9Im9wYWNpdHk6MC43MzUyMDAxMTtmaWxsOiM3MjlmY2Y7c3Ryb2tlLXdpZHRoOjAuMjgxMjg3NjciLz4mI3hhOyAgICA8cmVjdCB0cmFuc2Zvcm09Im1hdHJpeCgwLjEzODU2MzQxLDAuOTkwMzUzNTYsLTAuOTgwNDc4NiwwLjE5NjYyNTg0LDAsMCkiIHk9Ii0yNDMuMjA5MTUiIHg9IjI2MS4xNjk1MyIgaGVpZ2h0PSI4MS4xMTQ5NiIgd2lkdGg9IjEwNy4yMTg2MiIgaWQ9InJlY3QxMCIgc3R5bGU9Im9wYWNpdHk6MC43MzUyMDAxMTtmaWxsOiMzNDY1YTQ7c3Ryb2tlLXdpZHRoOjAuMzk4ODgzMzQiLz4mI3hhOyAgICA8cmVjdCB0cmFuc2Zvcm09Im1hdHJpeCgtMC41NTQzMDkwMSwwLjgzMjMxMDk1LC0wLjc5NjAzNjI3LC0wLjYwNTI0ODkzLDAsMCkiIHk9Ii0zNzEuNzg4NTEiIHg9IjE1NS4xMTU5MSIgaGVpZ2h0PSI4MS42NzgxMTYiIHdpZHRoPSIxMDYuNTAyOTMiIGlkPSJyZWN0MTAtOSIgc3R5bGU9Im9wYWNpdHk6MC43MzUyMDAxMTtmaWxsOiMyMDRhODc7c3Ryb2tlLXdpZHRoOjAuMzk4OTI3NDgiLz4mI3hhOyAgICA8cmVjdCB0cmFuc2Zvcm09Im1hdHJpeCgwLjE5Njc2MzAxLDAuOTgwNDUxMDgsLTAuOTc4NTQzNTMsMC4yMDYwNDAxNywwLDApIiB5PSItMTMuNjgxNTgyIiB4PSIzNjUuMzU3NTQiIGhlaWdodD0iNzkuNDYwODQ2IiB3aWR0aD0iMTA5LjI2NTYyIiBpZD0icmVjdDEwLTAiIHN0eWxlPSJvcGFjaXR5OjAuNTY5OTk5NjY7ZmlsbDojMjA0YTg3O3N0cm9rZS13aWR0aDowLjM5ODU0NjE5Ii8+JiN4YTsgICAgPHJlY3QgdHJhbnNmb3JtPSJtYXRyaXgoMC43ODg0NjU3MywwLjYxNTA3ODY5LC0wLjU2NjQzNjMyLDAuODI0MTA1NTEsMCwwKSIgeT0iMTkxLjg5MjI2IiB4PSIxNTUuMzM3ODMiIGhlaWdodD0iODIuODQ2MzU5IiB3aWR0aD0iMTA0Ljk4NjY2IiBpZD0icmVjdDEwLTAtMiIgc3R5bGU9Im9wYWNpdHk6MC43MzUyMDAxMTtmaWxsOiM3MjlmY2Y7c3Ryb2tlLXdpZHRoOjAuMzk4OTAwMDYiLz4mI3hhOyAgICA8dGV4dCBpZD0idGV4dDczIiB5PSIzNDcuNjM4OTgiIHg9Ii0zNjMuMzQ1MDkiIHN0eWxlPSJmb250LXN0eWxlOm5vcm1hbDtmb250LXZhcmlhbnQ6bm9ybWFsO2ZvbnQtd2VpZ2h0Om5vcm1hbDtmb250LXN0cmV0Y2g6bm9ybWFsO2ZvbnQtc2l6ZTo4NC42MTYyMzM4M3B4O2xpbmUtaGVpZ2h0OjEuMjU7Zm9udC1mYW1pbHk6J0xvaGl0IEJlbmdhbGknOy1pbmtzY2FwZS1mb250LXNwZWNpZmljYXRpb246J0xvaGl0IEJlbmdhbGksIE5vcm1hbCc7Zm9udC12YXJpYW50LWxpZ2F0dXJlczpub3JtYWw7Zm9udC12YXJpYW50LWNhcHM6bm9ybWFsO2ZvbnQtdmFyaWFudC1udW1lcmljOm5vcm1hbDtmb250LWZlYXR1cmUtc2V0dGluZ3M6bm9ybWFsO3RleHQtYWxpZ246c3RhcnQ7bGV0dGVyLXNwYWNpbmc6MHB4O3dvcmQtc3BhY2luZzowcHg7d3JpdGluZy1tb2RlOmxyLXRiO3RleHQtYW5jaG9yOnN0YXJ0O2ZpbGw6I2ZmZmZmZjtmaWxsLW9wYWNpdHk6MTtzdHJva2U6bm9uZTtzdHJva2Utd2lkdGg6MC44ODE0MTkxMiIgeG1sOnNwYWNlPSJwcmVzZXJ2ZSI+PHRzcGFuIHN0eWxlPSJmb250LXN0eWxlOm5vcm1hbDtmb250LXZhcmlhbnQ6bm9ybWFsO2ZvbnQtd2VpZ2h0Om5vcm1hbDtmb250LXN0cmV0Y2g6bm9ybWFsO2ZvbnQtc2l6ZTo4NC42MTYyMzM4M3B4O2ZvbnQtZmFtaWx5OidMb2hpdCBCZW5nYWxpJzstaW5rc2NhcGUtZm9udC1zcGVjaWZpY2F0aW9uOidMb2hpdCBCZW5nYWxpLCBOb3JtYWwnO2ZvbnQtdmFyaWFudC1saWdhdHVyZXM6bm9ybWFsO2ZvbnQtdmFyaWFudC1jYXBzOm5vcm1hbDtmb250LXZhcmlhbnQtbnVtZXJpYzpub3JtYWw7Zm9udC1mZWF0dXJlLXNldHRpbmdzOm5vcm1hbDt0ZXh0LWFsaWduOnN0YXJ0O3dyaXRpbmctbW9kZTpsci10Yjt0ZXh0LWFuY2hvcjpzdGFydDtmaWxsOiNmZmZmZmY7c3Ryb2tlLXdpZHRoOjAuODgxNDE5MTIiIHk9IjM0Ny42Mzg5OCIgeD0iLTM2My4zNDUwOSIgaWQ9InRzcGFuNzEiPnBhbmRvcmE8L3RzcGFuPjwvdGV4dD4mI3hhOyAgICA8dGV4dCBpZD0idGV4dDczLTIiIHk9IjM2NS4zMDE4OCIgeD0iLTE1MS44NjgzMyIgc3R5bGU9ImZvbnQtc3R5bGU6bm9ybWFsO2ZvbnQtdmFyaWFudDpub3JtYWw7Zm9udC13ZWlnaHQ6bm9ybWFsO2ZvbnQtc3RyZXRjaDpub3JtYWw7Zm9udC1zaXplOjg0LjYxNjIzMzgzcHg7bGluZS1oZWlnaHQ6MS4yNTtmb250LWZhbWlseTonTG9oaXQgQmVuZ2FsaSc7LWlua3NjYXBlLWZvbnQtc3BlY2lmaWNhdGlvbjonTG9oaXQgQmVuZ2FsaSwgTm9ybWFsJztmb250LXZhcmlhbnQtbGlnYXR1cmVzOm5vcm1hbDtmb250LXZhcmlhbnQtY2Fwczpub3JtYWw7Zm9udC12YXJpYW50LW51bWVyaWM6bm9ybWFsO2ZvbnQtZmVhdHVyZS1zZXR0aW5nczpub3JtYWw7dGV4dC1hbGlnbjpzdGFydDtsZXR0ZXItc3BhY2luZzowcHg7d29yZC1zcGFjaW5nOjBweDt3cml0aW5nLW1vZGU6bHItdGI7dGV4dC1hbmNob3I6c3RhcnQ7ZmlsbDojZmZmZmZmO2ZpbGwtb3BhY2l0eToxO3N0cm9rZTpub25lO3N0cm9rZS13aWR0aDowLjg4MTQxOTEyIiB4bWw6c3BhY2U9InByZXNlcnZlIj48dHNwYW4gc3R5bGU9ImZvbnQtc3R5bGU6bm9ybWFsO2ZvbnQtdmFyaWFudDpub3JtYWw7Zm9udC13ZWlnaHQ6bm9ybWFsO2ZvbnQtc3RyZXRjaDpub3JtYWw7Zm9udC1zaXplOjE0LjExMTExMDY5cHg7Zm9udC1mYW1pbHk6J0xvaGl0IEJlbmdhbGknOy1pbmtzY2FwZS1mb250LXNwZWNpZmljYXRpb246J0xvaGl0IEJlbmdhbGksIE5vcm1hbCc7Zm9udC12YXJpYW50LWxpZ2F0dXJlczpub3JtYWw7Zm9udC12YXJpYW50LWNhcHM6bm9ybWFsO2ZvbnQtdmFyaWFudC1udW1lcmljOm5vcm1hbDtmb250LWZlYXR1cmUtc2V0dGluZ3M6bm9ybWFsO3RleHQtYWxpZ246c3RhcnQ7d3JpdGluZy1tb2RlOmxyLXRiO3RleHQtYW5jaG9yOnN0YXJ0O2ZpbGw6I2ZmZmZmZjtzdHJva2Utd2lkdGg6MC44ODE0MTkxMiIgeT0iMzY1LjMwMTg4IiB4PSItMTUxLjg2ODMzIiBpZD0idHNwYW43MS0xIj5hbmFseXNpcyBmcmFtZXdvcms8L3RzcGFuPjwvdGV4dD4mI3hhOyAgICA8cmVjdCB0cmFuc2Zvcm09Im1hdHJpeCgwLjc4ODQ2NTczLDAuNjE1MDc4NjksLTAuNTY2NDM2MzIsMC44MjQxMDU1MSwwLDApIiB5PSI5Ny41NjYwNDgiIHg9IjIyNC4zODU3MyIgaGVpZ2h0PSI4Mi44NDYzNTkiIHdpZHRoPSIxMDQuOTg2NjYiIGlkPSJyZWN0MTAtMC0yLTIiIHN0eWxlPSJvcGFjaXR5OjAuNzM1MjAwMTE7ZmlsbDojNzI5ZmNmO3N0cm9rZS13aWR0aDowLjM5ODkwMDA2Ii8+JiN4YTsgICAgPHJlY3QgdHJhbnNmb3JtPSJtYXRyaXgoLTAuNzA0NzcyMTYsMC43MDk0MzM3MiwtMC42NjM5OTQ1OSwtMC43NDc3MzczOCwwLDApIiB5PSItMjI2LjE4OTYxIiB4PSI3NC41OTg0NDIiIGhlaWdodD0iNTEuMTQxNTgyIiB3aWR0aD0iNjYuNjg1MjcyIiBpZD0icmVjdDEwLTktNS0yIiBzdHlsZT0ib3BhY2l0eTowLjczNTIwMDExO2ZpbGw6IzM0NjVhNDtzdHJva2Utd2lkdGg6MC4yNDk3ODI2OCIvPiYjeGE7ICAgIDxyZWN0IHRyYW5zZm9ybT0ibWF0cml4KC0wLjg4NzYyNzYzLDAuNDYwNTYxODIsLTAuNTE0NDgzNTMsLTAuODU3NTAwMjYsMCwwKSIgeT0iLTMyNy4xMjIwNyIgeD0iLTE0Mi4yODA1IiBoZWlnaHQ9IjU3LjQ3MjYzNyIgd2lkdGg9Ijc1LjI1MjI3NCIgaWQ9InJlY3QxMC0wLTItOC0xIiBzdHlsZT0ib3BhY2l0eTowLjczNTIwMDExO2ZpbGw6IzcyOWZjZjtzdHJva2Utd2lkdGg6MC4yODEyODc2NyIvPiYjeGE7ICAgIDxyZWN0IHRyYW5zZm9ybT0ibWF0cml4KC0wLjk4MzkxNzQ3LDAuMTc4NjIzNjcsLTAuMjM5MDI3OTQsLTAuOTcxMDEyNjksMCwwKSIgeT0iLTIzMC40MTEwNiIgeD0iLTExMy4yNTQxMSIgaGVpZ2h0PSI0MS4yNDE4MzciIHdpZHRoPSI1NC4wMDAzNDMiIGlkPSJyZWN0MTAtMC0yLTgtMS01IiBzdHlsZT0ib3BhY2l0eTowLjczNTIwMDExO2ZpbGw6IzcyOWZjZjtzdHJva2Utd2lkdGg6MC4yMDE4NDk0NSIvPiYjeGE7ICAgIDxyZWN0IHRyYW5zZm9ybT0ibWF0cml4KDAuMjYzNzg2NCwwLjk2NDU4MTEyLC0wLjk0NjQ1NTQ2LDAuMzIyODM0NDIsMCwwKSIgeT0iNi4wNjAyMzM2IiB4PSIxNTEuOTM1NjUiIGhlaWdodD0iNTcuNDcyNjM3IiB3aWR0aD0iNzUuMjUyMjc0IiBpZD0icmVjdDEwLTAtMi04LTAiIHN0eWxlPSJvcGFjaXR5OjAuNzM1MjAwMTE7ZmlsbDojNzI5ZmNmO3N0cm9rZS13aWR0aDowLjI4MTI4NzY3Ii8+JiN4YTsgICAgPHJlY3QgdHJhbnNmb3JtPSJtYXRyaXgoLTAuOTgzOTE3NDcsMC4xNzg2MjM2NywtMC4yMzkwMjc5NCwtMC45NzEwMTI2OSwwLDApIiB5PSItMjc4LjMzMTUxIiB4PSItMTIwLjA0Njk3IiBoZWlnaHQ9IjQxLjI0MTgzNyIgd2lkdGg9IjU0LjAwMDM0MyIgaWQ9InJlY3QxMC0wLTItOC0xLTUtMCIgc3R5bGU9Im9wYWNpdHk6MC43MzUyMDAxMTtmaWxsOiM3MjlmY2Y7c3Ryb2tlLXdpZHRoOjAuMjAxODQ5NDUiLz4mI3hhOyAgPC9nPiYjeGE7PC9zdmc+;imageBorder=default;" vertex="1" parent="1">
          <mxGeometry x="250" y="550" width="170" height="56.23" as="geometry" />
        </mxCell>
        <mxCell id="9cJPVwpwHsh4F_o2YOtW-9" value="" style="shape=image;imageAspect=0;aspect=fixed;verticalLabelPosition=bottom;verticalAlign=top;image=data:image/png,iVBORw0KGgoAAAANSUhEUgAAAMgAAADICAYAAACtWK6eAAAhL0lEQVR4nOydC3wU1dn/f2cTLqFFuVmxQkUJ7kTFBKVq/deCVkVbszPwvggqkh02FLTWW0Vo+/q+tlpRab28VQFhM5Og0IqXmaUIarUqFa2CJEHqLrcX76ISRASBJHv+nwkTO0w2k9nd2Z0En+/nE2Vnz5zz7Mz85tye85xCzjkIgkhNwG8DCKIzQwIhCAdIIAThAAmEIBwggRCEAyQQgnCABEIQDpBACMIBEghBOEACIQgHSCAE4QAJhCAcIIEQhAMkEIJwgARCEA6QQAjCARIIQThAAiEIB0ggBOEACYQgHCCBEIQDJBCCcIAEQhAOkEAIwgESCEE4QAIhCAdIIAThAAmEIBwggRCEAyQQgnCABEIQDpBACMIBEghBOEACIQgHSCAE4QAJhCAcIIEQhAMkEIJwgARCEA6QQAjCARIIQThAAiEIB0ggBOEACYQgHCCBEIQDJBCCcIAEQhAOkEAIwgESCEE4QAIhCAdIIAThAAmEIBwggRCEAyQQgnCABEIQDhT6bcDhxsglGwc0HSi4FoxfCOC7AI4CwPy2K4/sAcMHSGJVM3DP+oriLX4blA2Mc+63DV2euXXbu4EXnjOvvuFaBhb6hgmiA/jWkQOL7hhz7KCq8Sejyz1sJJAsGVjXcOrAuoYVZm1BtAMH1iRREFk/+fh6v21JB+qDZMnAuoYFJI6OYcDIAjS/Oq+24Si/bUkHEkiGzK1rOK2setPzAM7w25YuRK+5b332B7+NSAdqYmXAvPoGYV5tw1sACvy2pUvC+FW1Vw6b57cZbqAaJAMW1jdMIHFkAWd3j3z4o15+m+EGEkgGNDZjnN82dHF6N/Xc8xu/jXADCSRNTln6r+6M4RS/7ejyMJT7bYIbSCBpEthTeAJdNw/gOM5vE9xANzpNCsB6+m3DYUIPvw1wAwmEIBwggRCEAyQQgnCABEIQDpBACMIBEghBOEACIQgHSCAE4QAJhCAcoDXp/rEb4CpjeBNJbEQAP+RJ9gMwSBnnyPAiOF/MWeBVluQnAZgIhrFZ2PgVgHsCwHLjQxL4KYAbARRlkWcrKddZlC3aXAHgmJYESWwoKsRLr11R/IUH5WUECcQPOJ6ZNqL/jKtO7bvecnS18Z+RizbPauK4AcB30shx78iji6YuHHPsYsuxt9Z+uHvp658cOPfh+obJHKwijfy29y/sd8v4k9mT00v77rAcf3Ve3c57l27g43Y0NdwG4Og08rSTet0+xzXGZWhJwIB9zUBZzeZdPJBcPG34Ub+9urTv9izKTN9IWjCVHiPUTWU8wNZlnAHHc3UVxWN4O29Qg7KazSMAvOF2zQln7LK6K4f+2SlNafXmVxnDWe5sDPy6tuKE2U5Jyqq3/goseYer/FKzv3ZycRu/trKazW+0CiQFB1iSn7kuPKw2i3LTgvog+aW5OckiTuIwqJ1cvK61RukIDv50R+IwKGju9pRbI6eV9nnSizQ5oDsPsHvyWSAJJI9wYPN6eeh7btIWBAJr3aRjCMx3k+5np/d2lR+A908bULSxo0Rmmvdd5ukl586tazgvX4WRQPIJxztuk04d3uf/3KTb19T0d1cZMu4qPw68fOagog7b3UYaI62rsj2GAaX5KosEkk8Y+rtNGt3wxQA36Xp16xZ0lSFnrvILAO7ySzOtl8yt2+76OmYLCSSPMKD4oXUNR7hJ29jUNNxNuuZk8xVu0q39cL+r/DhQ9sCajmNXGWmMtG7y9BrGC7MZPUsLEkh+OfLh+obHWQehSc1RLFdrthlj15cu2jKxo3Svf7Kn0qWNBQs3fN5hWjONT5FdWN6mJ0gg+YbhgtLqzSvm1u9M+UYfuWjzLAAr03n4GOfRymc+uNx+fO2Hu9nc2h3njajZpLoe4m3JMHndjxc3TJ1Xt7NNU8Y4ZnxnpHGdXxeG5kHSJOt5kH+zm4FVgfM3EEjGOQ+MAvgPAZb5zDfDiwBqWHPgHzzATwH4JCCrEEVfAfwPPMC0luyTXALYTR7NpO+rnVzcJp8O5kEOwqHWVhTLHtjQITST7h+9Ofh1LY0t3lqRZxkUnmM0gNE8kPTCPhwUAruFJXHLwY+eBq3vEhHwqYlFEA6QQAjCARIIQThAAiEIB0ggBOEACYQgHCCBEIQDJBCCcIAEQhAOkEAIwgESCEE4QAIhCAdIIAThAAmEIBwggaRJn+793zsYZJDIBg6867cNbiCBpMnfL++3A3AfnYRIDQN7wW8b3EACyQTG/+G3CV2dJMcCv21wAwkkAyZdMOg2DrgNxEYcyhecNYbrK4amvn6cd6pVriSQDLhpYNGm+snF3wdH1G9buhrJ5ubf1V1ZUt1+Cpa3kD5uIIFkCAd4XUXxVAB+xKjtqsSvPm3Aw44pGPrlzRoXdKrqrKthiGTt+YPHv/7JnrMWvLl7VHPBgRBjbDiAb/ltWyfiky/39XzkpjN7Vfcv7Ld+/MntB+4eXr21rIChR37Nc4bC/uSAU6s3jwqA3QbGz8kyqyTQEsqn0SPT8sEugCXAsbpwP3t1zc9O2OX2xLKaza8AOLvDhBT2p2tTX1H8UlnNlk+zy4W/y5IQ87kXhp+MeGSL5EoceYYEkgPmvPZVb4BfnOHpqzgal0cvPE4ZObDXJx6b1im5YdVHJ/Ik75TDviSQHNC76KtTM4w++NfaycWuYvIeLpxWlfhusjDwHOAu+ny+oVGsXMBxQppn7EiC/eSbJo559TtOSBYWrAPY9/y2pT2oBskBD77ZcFqBuytbH2DNy6eW9Z9/1fABKd1Xyqo3zuJgx3pto18wxnoAGACOo8EwwqM4vzmDBJIDAgX8NBehZ2+vnVx8S4eZscClDC0P0uFFFpF5OfI39EoC8ZiH1+7swRhrb4uw93mgYMFVpxy5XOjTz52rCsN68MNQIFlQ2PNA3gYvSCAe8+BbO8YwhiPbfMHw4rTh/SdcVdY3rZvLkuxhzvhkL23s6kwVjvkgX2VRJ91jGOPn2w7tAseE2iuLz01XHAbrKoa+AvC8bp7fBdiRr4JIIB6ydvue7uDs4HZoHHGO5B+vGn7U6bUVxY9lk+/Igb1u9MrGw4DtXx5d9Ey+CqMmloe88fF+AQxHgePe2opizx7qhRceu7isZtNQgP3Oqzy7Kpyx628aWEQ1SBfluwB+efUpvW7yOuO6ycNuB8OvuphflqcwsCX1W4dmVRunXSY5K3rHax/vC5w1sGdO16vPrd1xxrz6nTPYQb+lgd+ElxwH9o48uuj2wWOOnX1rnssmgXRhSpdsHMwa2U/AcBo4azty1lngKAWDkOZZf+fga8HZquZeB1a+Nf6kAzmyzhESCJFz5tfvOHpe7c7HOPAj92exa2snD/1TLu1yw2FfPRP+M+3U/tvXTS4eNe3UvsOB5iiA5o7P4pNfzIdxHUA1CJF3Tn9kS3Ezx33g/KdO6aaf2u8708v6ZbmuJjuoBiHyztpJQzfXXjn0EoA5N6EYhuTNqHYggRC+seCigddNL+13Dgd/ImUCo3PvM9TEIjoFpY9sPIclA0aN8rUoOOcP1FUM+4WfdpFAcoSu692TyUARY829AWb8FQLYzRjfzRjbN3To0L0nn3wyXXwLSzeAPfv++5e98fG+G8BwOjh/pbZiWLaBL7KCBOIhlZU/G9bU1HQpGJsAYHgHyRvBsR0BrOecP950oOdTjz760M5My5blyLmAJ3MhzZzj04IC/klTU9Ouc2V5Z3j06LwH6y6r2TwCwCO1k4tPznfZVlhFeMpFGZ67RVWim7I1ICxHfgSgV7rnSWJogySJ77WT5wUACtLM8ktViaYdc/fWW2/FO++8fxFH8mpw9lOwjPt1xqtqIxib3bNbwdL58+fvTefksDxlHcDKMizbiZ1geBFJXss5f7q6WlmTgzJSMq+2YfjCtz/7aM1lJ36WrzLtGNX+igzP/VzT9O9Lkrg508LDcuRGAHMyHCy4yriG7Xy3DEg7AFkcQInbxJoWG7L06eXjux1omgyGU1qWyGWxSq7FUx4IgnN1/4GmeRXhyIqxkmj8jjXDhg19y8fmWF9wjAVjYxljv62QI8ZLqa4keOIzwZNKHhsbCuVs8dL0sn7rp5f5G2gxG2/ePpoe+4UkiddlcnJYjlwG4I9ZlO8bkcqpoebmpNatxX8uJ0X0ZAxjNV0fixYPVsyprorenJOS0oQBgwEMjic2XhKPb7w39pT24LhxY2eWl5fv99u2XJDtMG9GUTg0TTfe7vdkWbYvTJo06YjmpuTc7FZVpwfjmCHLkQcjkUjvfJXpCoZCDnbdE09qc/02JVdkK5Djw3Kk2nzgXROPJ6abnqhdhtpt29gVkyZVFHbrUQ/W4taeVzhwdXMS791x592X57tsF8jhcGR5PB4f7LchXuPFROFkTY+5biqF5QiLJxKer5fINdvq6n/QrVsPFcBxPppx5ElCMG/rsdOC4Sd33jXHOXJ7F8SrmfSrNE0/xmXaSgCDPCo3b+iafonfNgBsVWPjgZf9tsKB86+srCz22wgv8UogAU2PdVgrhOXIRAD3e1Rm3njqqWVHco4pftrAwWvEkFg+fvz4zjxxVRho5s8+pcd8dxHxCi99sa4Oy5HvtPelpulG+3RxZ4+klwpdf6oCDP7tfMTxZrVSVTF2bLnrrQT8ggHH65pe47cdXuGlQHoC+EN7X2p6rDyfIz+ewjDWz+ILCgOL/Cw/A07VNK1TBqNOF6+jmlwZliMfz5o5Y6YgCF83BTRN7w3gWo/LyguVlZXHASyNlXBfsyvAEA2FQms42GbG0A2c9wFathg7RtNip3CGkxlalqI67Ui1fMZNv1yYxU9whmMtmOlvxFl3MH4EwI7KdpcsDnYugKVemekXuQj7MyMeT+iCILzSekDTY8YNDuagrJzT1IRTMnIfYWx+VdXCme19LUliy/+nTZvWbf/+ptvAcHObGpZhRbVSVa4q0Zz1OySp/CxJkpqsx5588ske+rKnr2fg12c6HL9yxYpTx0pilxdITtaDaHos1Ppv0y/q0lyUkx94ZpHVOT/RTbL58+c3qmp0FnjzMDBYh0m/TDY1hrkP3qTjxo3bX60svIsheTw43s0kj8bGxm97b1n+yVXguCmapkcBHACwJEdl5AXOeFGG/iRSOBxZHQwOe6KkpOQNzrBlRGnpB0OGpF4kp6rqFqNCuf6GG9fu/HxXuRA88flfzZrp6w5TiqLsmz37zlmJjZsWp3tuM+edarfaTMmVQAZoeuwZADEA/XNURn4IsA3I1Nmb4QeJjZuMv5aPuhZbA8arkoHAqhMGDXrr1lvbRnm67957jFqk00y4lZQIr7Tanw6Msz45MSjP5DL0qPGqvDqH+eeFAwcO1PUo7N6cgft8KkaCs5GBZo5t77z3UTgcWQ/G3xlSWlpfNmRIPcC3SZKUUZMmd7AMw3zyTj8k7YZcx+bt8rF/lyxa9Gk4XLkEjE/yOOtjwHCMUc1sq6tv+TN4Sl92a7cCpi5cuDDljlP5hx2f2Wn5i8CeSyhogws4R94CmDHg1qZmvlWWK2flq0xneKauI196bIgvkEBcUF298HUO/kIeiwxw8NkV8pR/yXLk/nnz5uXdQVLTtEJN08/QtNgdmZwviZkvpOtMdPkmUL6QJHGGrsXcbZvmEQyshAMlr/3zjfNXr159Rk1NzZ5clifLcs9kstv3GGs6G4zNbpkDydj3ga3y1jp/oBrEJWNF8U0GPORT8Sexgm6vyLLs+ciQpi/7MixH9hl/HIG9LNCcAGNKlut1Gj7vc8Q2D830jUwF8k8PbXjfw7xyiqJEfy5J4v/jwKv5LpsBpUmw1fF43OvFWj0sf174yn0VCLCf+xEJJRdkKhCjA/mkB+U3AuhSyzUlMbR6rFh+HgOMtnlOmzx2jCbXHbP/2Kl92hhwXVV04Z/9tsMrsmli/RzAvizLv0MScxcVI1dIkrRPUaK/STY3ngDwtEMFZUMgkByZz/LSguNdVa3KnWOlD2QsEFWJfiwEg/dmUfZsSQzdlsX5vlNTU/PJzJtnjJZE8TRJDIUBXgOOf5kuNrni7BEjRnTGtd87BUH4mR++Y7kkq1EsQQjeHU8krssg8Ns/VSX6axx0hc/GBN8pKSlpLikpWQdgnSSJ1WhZgRgboC/TxjMeGMXREuLfS8e9orKy0y8AUOVhntnSEGC8bNasGSkD+XVlshrFkiTxcwD/lcGpqaN5dxGmTZ9+idPa67FjQ5+pVVVzFWXhxLFSaAg4poHhMaMD60X5SfBOVYM0FwSuqaqqOuzEAS/mQSQxdJ+mx3oCuN2l4OpmzZzRZdupT2n6Ofv2Ny4oAAaE5chLJSXB2TNvvvn59tKLorhDFMUWB8QVK1cesX/f/jIAxXosNopzTMrkJcXA093vz3s41hUUBpTyS8pjkhTqJG4x3pO9QCSRS5I4OyxHLgQwuoPkRof8PEEQMg7S7CeyPHUcR/JxS5DRH7/9duI8Wa58jHM8pKoLHSOOXHzRRV8AMNK8LEliVXhK5TZw/t/p2sEAv6IYGjVgVYDxqiql6k2fbMgrns2kC8Hg7+OJxCiHsfTPJDF0niSJDV6VmU/uuuvuSziSf07x+xgHnwCGCRXhyLpAALoYCr0K8Po+ffpsHz16dMpO64YNGxg4z2jegYO9ndGPSM0TB+PSfU3TQT8q/iWAfWWlpZ8MGTJkI4AP9xf13DRhzJjDwsfKLZ4JZNasm/8WliP3AbihnSQPS5K4wavy8smll15a1KtX7/lg6OaUjjGM4BwjND3WeugLtXqRzoBNnKOBMfZhkiW7s2TLMt7zAXZWRgZxeCYQSSyfaF9yS/wbr32xjA67BKCNi7QkhryYWMw7jDFWUTGlJsNwo0cAuLLl9cxaYluB8ayjwDf16FH4UlY5EK7x1BdLVaJ7JTF0PoCPLIeNt9MvBSGYV0c/L4jH49+pqJBfBMN/+m2LhVXz588/LBYjdQU8d1aUJHErgActh36jKtF7BMH/gZd0mX3nnN+BZRTyJ2f06N7tGb9t+CaRE29eS3Pqo666B0hlZeVxjMHrVYRZc/HFF8f8tuGbRG4EIolGJzIiBIP/oyrR5lyUkWt+Egrt3tejJZp7Z/FK3ZtMBirNa0vkiZwtmFKVaGdyhUibcaFQw7hQ6BpZnvoI58lFYPAzavkengycXVO9oN5HG76R0IKpDlCUBa8lk41lAHwbZGDA/dUkDl+gJbcuqKmp2ROPx38cjycu0nT9TA4mMuCEHBfbCGBlXe262OLFSx7JcVlEO5BAXCIIwi5BEP4iSeJfli1bNvOJJzQZwC8O7nDrObs5T8rVqtKlnToPB6iJlQHl5eWNqhp9WFWjw3kSkump+6EHWXNwVPToXjiQxNE5MGqQFzM473MPbfgoQxucHsiXAWe3kBRkFNGwujqqA2hZ1KJp2nEAM2qUE5cuXdq3W/fuReDsCLCWGfUiAN/iwH7GW5wN93DOvmhq2vfxf44fn2DAxkCAbQuFQhlNAkqiKGey7mTYsGJyM3GAHWYLwAjCU6iJRRAOkEAIwoGcjGJpms40PXZIuExJDH0gSWJjLsoj/o25kerXMQJUJdppA7hpmt5b02PW7TF2qUq0Uy2mayMQTdO/r+mxyVnkeZskhr4A8H+240bntUuuB+kITdNPstbGghDcIghCxuvPNU3vGY8nLosnEv8PwJEABphe0UaexgO0VRJDHwJYnWKNzQIA1h2+Cjuxu88UAPdZPt8NoN1t6/wgVQ0SBHBNFnk+AOCLLM7vcmh6bB2A7q2fJYTOEgQho+iTYTlyJoBnzbUkTmXCXIQ2LZNyCHdQH6TzsaQjcRD5I1UNssVoutqOFQGYYDtmNKFSrWyjxTzZYV2N+QGApZIYWm82r/rE44nvxhOJ0wCc7KONniAIwRoJIev6lk636U4bgUiS+KrxZz2mafpATY/ZBfJPVYnKqTI12tCpjofliHH8cgCVAHoDeAvAn1QlujpFHj/Q9NgYy6EXJTG0StNjEwFcZjYFl6tK9HrbeYM0PfYzAOcDGGQ294zfc6+qRP/Vjl3GdTgXwBgz32MAHA1gL4AEgLWSGHpQksTPbOcZtgj27dk0PVap6bGLLYdmq0q0w0gk5vWxMlFVou2GNg3LkaM6ytOSVgQwA2hZOlwHYJ6qRFMuvgrLkR8AuMgU4SAz0rvR2vgYwCoAy1Ql2mZyV9P0IzQ9dqPt8EOSGNqr6THjPl0I4FgA16pKdHk8njjRdp3+IUni3yx2/BTA9y3fL1SV6PthOfIjALeY2/wZL/THJDFU1bq1dorf09PcaVkCWryy3wXwW1WJvhGWI1cCGGomTapK9HfWc/Pmi6XpsWPNgNfW7ZGNjvsPw3LknBSjLWcD+B9bHiMBzLEcOsRhMCxHSo2bB8AeWM240ZGwHPmzJIZkSRLtD6tx45a3Y7phb7mmxy7V9NhoVYl+avnuMmuH2EKl7fM9cBeqx75RztFOiW22tEtYjvzCXLjW6l1wfMsuvHLkfkkM3ShJYtKS9ltG57+drAabD+yNYTlyq6pEf2v7/kj7PQPwhCmOKZZjA8z/n2VLb3TS/2b5fAmA6ZbPK8NyxHhmHjNfsDAf+DGaHgtIktgm3pqm6Ua6521CGw7gjLAc+TEAQyAXmMebARwikHz2QR62iaMV4w31sqbpHe0rfh4A+7awLfbH4/HeYTnyKIA1FnHsA7DVHPWBGa7nMk2PPapputPvPmBuybDNrEFaOQnAevOtlhMkMbTFdmhuWI4suvPOuys1TT9T0/TB8Xg83ZAPLwD433Zcb66LxxMTHc5tMl2Btpi1h9Xt4r/CcuTXLsq/zdCd7Vimz53xcvyrRRxWfq9pepsXinG/beJo5SizZeHobJpPgRhvx3nG29hocti+G6zpsds7OP8cAEZV+Yx5oR5tXe0XjycmmE231hrxc0kMlapKdKiqRPvZQp3+h6bHpqTIXzGaH6oS7aEq0cGqEj1eEkOGzdYAacYNWGIR2P0AZPNBsnKbebz1z9WQrySJ9nyMmzgpnkgs0PTYa5oee/fOu+YYzYIrwnKkh5s8ARjNkQYAVwAwmp7brV/GEwkpxTnLzVq3u6pEjWtSrCrRY8y3bSvGtf59WI6c0UH5ovmiecy8Liuy2DH4h6ZIjVplou3efEfTYzOsicNyZIz5vLVivPymmk2zS8yXxjFOBebT3f2vqhK9CgervRVmn8baRHKzm+ofVCX69eaWYTnSMrSq6bGzbel+IUnixtYPkhgyHrD/sHxvtJOt1fEzqhJ92l6Y0efQ9NhU22Kp3mab/ENVib5g2jH/kPPE0HJJEjPdZOhl86Fuj9MBPALgvzVNv0iSRPt8k53PAZypKtHNpq3rcegGQH1t6fdKYqhcksQ2TnqSGFqs6bEHzaZUK4atr3dgwzWqEq1u/dB63zKkXFWiK818VprROlvzG2JLa59TeVRVoq33/R3jRQNgqVNheROIEAw+2vpvSRKbNT0WA2DtYJ/UQRbbZ82ccZf1gKpEW7cZKLUcNo710zT967mceDzRz5ZXifHmU5Xo62Y+zZqmDwNwsabHBpkPTV/zTZfqGh3lkXt7GyQxZDQlRxkdffPhO7adpEYH1+jTnS1JolMNdW2rOHDwt74WliO7LA/5AGtiVYlyTdOP1TTdaNcb7ft+5rVofQjtwunovi2fNXPGIlsZmW4P8UCrOMx8doXliNH8K7Hbomm6UcMeUrtJYihm+/y4pse22vuyVvInECFob19/Zvvc0RYKLzjE9LW2PY0beb8lumF7nNL65gvLkREAXrNO9nWA2+ZN2hgvD+O3SpLYWjsdbQ6x35Ri8KFM02MTJUlUHLJ8NsWxrywCOeQ3h+VIHwC1duE40NGcjSIIgleBL1KNuln7iV8/Q5oeM8TyLVvaD6wfJEk00r3nJJB89kHsb7m9aZ7vdQTxlotpPoDLUojDsDcOYKPH5aaFqkS3q0r0f83mw4Upaq6SDrKwv4hgLudtQ1iOMLPJYReH8YBvNq9HuruKeXnfUs2TtOfftzvFsVQDFY7rhvLZB7FXzekuRHEaJv3U0hTZAyAkiaGO3lqbzP9PtTVj9gvB4I8FIfiqJInJsBw50ZwLccJeVsbBRTVND1iHXVtRlahx7LmwHHncaDZZvmqvCeZEe9f+h+b80dcIweClghDUJUk8EI/H2Z13zXnfnEtxi5eR6F0/M5IY2qrpsU/N5nAL8XhiqHUIW9P0IqfaA4eRq4k14odRrRZLkvhiqj/jjWb0MyRJbK1u7R38DwQh+IrlIXWzQdBHts/2zqJrND22LSxHZmma3t6Wz/bhcC/jZNmvBReE4LOGOHDwAStLUxy+Yd6/Q+JBxxOJqWYtaYijQNNjCzra7vqwCNogBIM18UTiCsvw4YNGv0ISQ28aTaV4PDEwnkgMMmfJf2T6O7VGCnne6JxbsjtB02N/ArBG02Nn2YY22+M16yicpsfu1fRYhdkc2awq0Rlp/ByjnzFb02O/0fRY3ByW3WO29U+0vfE+l8SQ3S0oG/5u1oatL06m6bGHjJoLwLfbGR7vtEhiaIamxy6wXLNzALwbliPbzGakYA7Rt6uDw0Igs2bd/HxYjlSY+/Z1N3/XdBcddZiz3JfYNv+5xnLuHNNFwwmjyfNTS4d1oOmqYfBG2j/oIN8G0NGOtg9JkujZPvOqEn09LEd+b7pxtHK5pscuN/+9xXRTKfWqzFwiSeJuTY/NtA3lDjL/YM73FJmT0Ck5XJpYxs191GwifNBB0vesIzuqEjXatZPN2XM7LwOwu1OkKtvoCP/ERdlueM5lu32lJIbmeFCendtsTVYrtzt0ijslqhJ9vCU8U9s97Z81fbOsI11tBiBc1SCCEGyQEDrXdni7Q/oD9vSCEDxkQksSQ4+bw4mtcFv6v0gIWSfoOlwZpyrRtfF4vCQeT5xu+uj0MavQHebfu4IQjAuC0GQ77z1N079vNr8GmNdlqyAEX4rHE1+ZjoxW29q0+1Ul+oqm6YLZROpvubZprY1RleiFmqZ3M9/Sg82apJ/5MttnCvx1SRJT7i8viaHfALBuz91msZQkhiaYXgmwPziqEm2Mx+Oj4vHEuea1+JbZx6qXJPFtTdPrbUO7n1quyycpnpOt7f1WQQg+LiFUZzn0rs1Oo3b/i+VQG2dTSQxdbRmyTjnCpirRBzRNfxDAMHNOZ6cgBDfH44m+mh6zNlnbzG1RVBPisCYsR24wRyFXmK2FFjRN76/psRU2P61FqhI9ZDXtYdEHIQgHhpn9zHfCcmSF2Xz8numjdciaGkkMPWc/mQRCfFM4zuY6b8Vo6lcLQnCJ/QsSCHG4U206mI6yueo0myNy95gDPCn5/wEAAP//kMeLyfyFMI8AAAAASUVORK5CYII=;imageBorder=default;" vertex="1" parent="1">
          <mxGeometry x="40" y="390" width="90" height="90" as="geometry" />
        </mxCell>
      </root>
    </mxGraphModel>
  </diagram>
</mxfile>
